<svg width="24" height="25" viewBox="0 0 24 25" fill="none" xmlns="http://www.w3.org/2000/svg">
<path fill-rule="evenodd" clip-rule="evenodd" d="M12 19.25C12.1989 19.25 12.3897 19.171 12.5303 19.0303C12.671 18.8897 12.75 18.6989 12.75 18.5V5C12.75 4.80109 12.671 4.61032 12.5303 4.46967C12.3897 4.32902 12.1989 4.25 12 4.25C11.8011 4.25 11.6103 4.32902 11.4697 4.46967C11.329 4.61032 11.25 4.80109 11.25 5V18.5C11.25 18.6989 11.329 18.8897 11.4697 19.0303C11.6103 19.171 11.8011 19.25 12 19.25Z" fill="white"/>
<path fill-rule="evenodd" clip-rule="evenodd" d="M11.469 20.5311C11.5386 20.601 11.6214 20.6564 11.7125 20.6942C11.8036 20.732 11.9013 20.7515 12 20.7515C12.0986 20.7515 12.1963 20.732 12.2874 20.6942C12.3785 20.6564 12.4613 20.601 12.531 20.5311L17.031 16.0311C17.1718 15.8903 17.2509 15.6993 17.2509 15.5001C17.2509 15.301 17.1718 15.11 17.031 14.9691C16.8901 14.8283 16.6991 14.7492 16.5 14.7492C16.3008 14.7492 16.1098 14.8283 15.969 14.9691L12 18.9396L8.03097 14.9691C7.89014 14.8283 7.69913 14.7492 7.49997 14.7492C7.30081 14.7492 7.1098 14.8283 6.96897 14.9691C6.82814 15.11 6.74902 15.301 6.74902 15.5001C6.74902 15.6993 6.82814 15.8903 6.96897 16.0311L11.469 20.5311Z" fill="white"/>
</svg>
