<svg width="177" height="111" viewBox="0 0 177 111" fill="none" xmlns="http://www.w3.org/2000/svg">
<path d="M121.336 35.3808C121.854 35.6718 122.372 35.9264 122.825 36.3264C123.44 36.9447 124.022 37.3811 124.734 38.0357C123.084 39.2722 120.948 38.6903 120.656 36.981C119.135 37.5629 118.844 37.4175 118.909 35.7809C118.359 36.1809 117.711 36.5446 117.355 36.7628C116.935 36.2537 116.74 35.8536 116.352 35.2354C116.352 35.2354 116.449 34.7262 116.481 34.3262C118.423 35.6354 118.423 35.6354 119.329 34.4353C119.944 34.7626 120.624 34.9808 121.336 35.3808Z" fill="#D18C03" stroke="#D18C03" stroke-width="2" stroke-miterlimit="10" stroke-linecap="round" stroke-linejoin="round"/>
<path d="M138.554 107.281C138.651 107.063 138.813 106.99 138.91 106.772C139.072 106.699 139.298 106.699 139.525 106.517C139.881 106.844 140.302 107.063 140.658 107.39C140.367 108.663 140.334 108.772 139.234 107.754C139.234 108.045 139.201 108.154 139.234 108.336C139.298 108.518 139.201 108.736 139.298 109.064C138.263 108.809 138.327 108.154 138.554 107.281Z" fill="#D18C03" stroke="#D18C03" stroke-width="2" stroke-miterlimit="10" stroke-linecap="round" stroke-linejoin="round"/>
<path d="M109.976 32.253C108.908 31.8166 108.196 31.4529 107.517 31.2347C108.196 30.1801 108.649 29.4527 109.102 28.689C107.937 30.0346 109.297 30.9074 109.976 32.253Z" fill="#D18C03" stroke="#D18C03" stroke-width="2" stroke-miterlimit="10" stroke-linecap="round" stroke-linejoin="round"/>
<path d="M96.2538 91.3875C96.2538 91.3875 96.3832 91.4239 96.2538 91.3875C96.9658 91.7876 97.5484 92.224 98.2604 92.5877L98.0662 93.0605C97.0953 92.4058 96.0596 91.8603 94.9916 91.1329L95.1858 90.6602C95.5418 90.9875 95.8654 91.1693 96.2538 91.3875Z" fill="#D18C03" stroke="#D18C03" stroke-width="2" stroke-miterlimit="10" stroke-linecap="round" stroke-linejoin="round"/>
<path d="M114.798 32.4351C115.154 32.7624 115.478 32.9442 115.834 33.2715C115.996 33.4897 116.158 33.7079 116.352 33.817C115.802 33.6716 115.122 33.4534 114.637 33.4534C114.378 33.4534 114.248 33.817 114.054 33.9625C113.86 34.1444 113.666 34.3262 113.439 34.2171C113.213 34.108 112.986 33.817 112.921 33.6716C112.857 33.4897 113.18 33.0897 113.31 33.0533L114.798 32.4351Z" fill="#D18C03" stroke="#D18C03" stroke-width="2" stroke-miterlimit="10" stroke-linecap="round" stroke-linejoin="round"/>
<path d="M30.7484 88.8786C31.9459 88.1149 31.1044 86.551 31.7517 85.6055C32.2695 85.8964 32.7226 86.2601 33.7583 86.8056C33.4993 85.9691 33.2728 85.2781 32.9492 84.5508C33.2081 84.5508 33.3052 84.5871 33.5641 84.5871C34.3408 84.8417 34.9881 85.0599 35.6354 85.2781C34.891 85.86 35.0528 86.9511 35.5059 87.3148C36.1856 87.8239 36.0561 89.8605 37.5449 88.9877C37.4478 89.2059 37.5125 89.6787 37.4154 89.606C37.0271 89.6787 36.574 89.8605 36.315 89.5696C35.7972 89.0241 35.3441 88.3331 34.5997 87.3875C33.6288 87.7512 32.2048 88.4058 30.7484 88.8786Z" fill="#D18C03" stroke="#D18C03" stroke-width="2" stroke-miterlimit="10" stroke-linecap="round" stroke-linejoin="round"/>
<path d="M34.7292 62.9844C34.0819 62.7662 33.5964 62.6571 33.3052 62.5116C31.7193 61.8206 31.3633 62.0388 30.9102 64.0391C30.5542 63.4208 30.0687 63.0207 30.1335 62.6207C30.1658 62.2206 30.6837 61.9297 31.072 61.566C30.9749 61.4933 30.716 61.2387 30.5542 61.0205C30.3924 60.8023 30.1982 60.4022 30.1335 59.9658C31.3633 61.4569 33.6612 60.184 34.7292 62.9844Z" fill="#D18C03" stroke="#D18C03" stroke-width="2" stroke-miterlimit="10" stroke-linecap="round" stroke-linejoin="round"/>
<path d="M31.8811 57.2743C32.2372 57.3107 32.6903 57.4198 33.111 57.3471C33.3699 57.8926 33.5965 58.5836 33.8554 59.42C32.6255 58.7654 31.4604 58.0017 30.1335 57.2743C30.0364 57.7835 29.9069 58.4017 29.8098 58.9473L29.7127 58.8745C29.7127 58.038 29.7451 57.0561 29.7775 56.0742C29.9393 56.0014 30.2306 56.1833 30.3924 56.1105L30.2306 56.4379C30.6837 56.8379 31.2015 57.0925 31.5575 57.4198C31.6546 57.4925 31.8164 57.4198 31.9135 57.4562C31.8811 57.5289 31.9459 57.4198 31.8811 57.2743Z" fill="#D18C03" stroke="#D18C03" stroke-width="2" stroke-miterlimit="10" stroke-linecap="round" stroke-linejoin="round"/>
<path d="M103.342 48.6914C103.956 49.0187 104.41 49.1278 104.766 49.4551C105.316 49.8916 106.74 49.2369 106.578 51.1281C105.51 50.9826 104.442 50.8371 103.471 50.4371C102.306 49.9643 103.309 49.0915 103.342 48.6914Z" fill="#D18C03" stroke="#D18C03" stroke-width="2" stroke-miterlimit="10" stroke-linecap="round" stroke-linejoin="round"/>
<path d="M84.2143 9.88647C83.1139 10.9775 82.8873 12.1413 84.2143 13.1232C83.5993 13.0869 83.211 11.5958 82.4342 12.8687C82.0782 12.5413 81.8517 12.1413 81.4957 11.814L82.6931 9.92284C82.952 9.63189 83.1786 9.34095 83.3728 8.86816C83.6964 9.34095 83.9553 9.59553 84.2143 9.88647Z" fill="#D18C03" stroke="#D18C03" stroke-width="2" stroke-miterlimit="10" stroke-linecap="round" stroke-linejoin="round"/>
<path d="M161.824 72.5488C163.183 72.2943 163.766 73.3126 164.348 74.3309C164.283 74.44 164.316 74.7309 164.251 74.84C163.701 74.6946 162.989 74.5855 162.503 74.1854C162.05 73.8217 161.986 73.058 161.824 72.5488Z" fill="#D18C03" stroke="#D18C03" stroke-width="2" stroke-miterlimit="10" stroke-linecap="round" stroke-linejoin="round"/>
<path d="M5.27748 5.30459C5.18039 5.23185 5.11566 5.08638 4.92148 4.97727C4.6302 3.55892 5.82768 4.32265 6.28078 3.88623C7.12225 4.90454 7.67244 5.88648 6.53969 7.123C5.82768 7.01389 5.47167 6.68658 6.15132 5.92285C6.05423 5.85011 6.08659 5.74101 5.9895 5.70464L5.27748 5.30459Z" fill="#D18C03" stroke="#D18C03" stroke-width="2" stroke-miterlimit="10" stroke-linecap="round" stroke-linejoin="round"/>
<path d="M12.8507 81.1318C12.5918 81.4227 12.2035 81.7864 12.0093 81.9319C11.2973 81.5318 10.4234 81.2409 9.61432 80.8044L9.71141 80.5862C9.9056 80.6953 10.1645 80.6953 10.3587 80.8044C10.3587 80.5135 10.2616 80.1862 10.294 79.7861C11.4267 80.0771 12.6242 79.6043 12.8507 81.1318Z" fill="#D18C03" stroke="#D18C03" stroke-width="2" stroke-miterlimit="10" stroke-linecap="round" stroke-linejoin="round"/>
<path d="M27.5443 84.6232C27.9326 84.5505 28.1916 84.5505 28.7418 84.4414C28.5799 84.7687 28.3857 84.9506 28.2887 85.2051C28.9683 85.7143 30.2629 85.8598 29.5832 87.46C28.7094 86.8417 27.8032 86.078 26.9294 85.4597C27.1883 85.1324 27.4148 84.9506 27.5443 84.6232Z" fill="#D18C03" stroke="#D18C03" stroke-width="2" stroke-miterlimit="10" stroke-linecap="round" stroke-linejoin="round"/>
<path d="M66.2843 74.8765C66.0901 75.6038 65.9931 76.4039 65.8312 77.1677C67.9349 78.4405 67.9349 78.4405 68.1291 79.0952C67.1582 79.277 65.9283 78.3314 65.1839 76.5494C65.4429 76.0039 65.8312 75.3493 66.2843 74.8765Z" fill="#D18C03" stroke="#D18C03" stroke-width="2" stroke-miterlimit="10" stroke-linecap="round" stroke-linejoin="round"/>
<path d="M60.4588 5.88623C59.9733 6.75907 59.6173 7.26822 59.326 7.95921C59.2289 7.34096 59.0995 7.01364 59.0347 6.54086C58.5493 6.8318 58.1933 7.08638 57.6431 7.48643C57.4489 7.08638 57.2223 6.68633 57.0605 6.46812C58.0638 6.17718 59.1318 6.0317 60.4588 5.88623Z" fill="#D18C03" stroke="#D18C03" stroke-width="2" stroke-miterlimit="10" stroke-linecap="round" stroke-linejoin="round"/>
<path d="M18.8067 71.4949C18.7419 71.604 18.6448 71.5677 18.6124 71.6768C16.8643 72.8409 17.3175 70.5491 16.5729 70.0034C17.3823 70.4399 18.5477 70.0762 18.8067 71.4949Z" fill="#D18C03" stroke="#D18C03" stroke-width="2" stroke-miterlimit="10" stroke-linecap="round" stroke-linejoin="round"/>
<path d="M84.3437 16.0329C83.211 17.8149 82.2724 16.1784 80.9454 15.7783C81.528 15.2692 81.884 15.0146 82.4018 14.7236C82.6931 16.1056 83.4051 16.2147 84.3437 16.0329Z" fill="#D18C03" stroke="#D18C03" stroke-width="2" stroke-miterlimit="10" stroke-linecap="round" stroke-linejoin="round"/>
<path d="M37.2542 61.1296C37.1571 61.6389 37.1571 62.221 37.0923 62.7303C36.6715 62.512 36.1211 62.3665 35.8622 62.0755C35.7003 61.8572 35.7974 61.3479 35.7327 60.875C36.1859 60.9841 36.801 61.0205 37.2542 61.1296Z" fill="#D18C03" stroke="#D18C03" stroke-width="2" stroke-miterlimit="10" stroke-linecap="round" stroke-linejoin="round"/>
<path d="M68.5822 7.99549C68.2262 8.50465 67.9996 9.08654 67.7083 9.48658C66.8021 9.26838 66.6727 8.65012 67.1258 7.92275L67.5142 7.01355L67.4494 7.12266C68.5175 6.39529 68.4527 7.37723 68.5822 7.99549Z" fill="#D18C03" stroke="#D18C03" stroke-width="2" stroke-miterlimit="10" stroke-linecap="round" stroke-linejoin="round"/>
<path d="M88.1301 16.615C88.1949 16.7968 88.292 16.8332 88.3243 17.015C88.3243 17.306 88.3243 17.5969 88.2272 17.8151C87.677 17.6696 86.965 17.5605 85.9941 17.1969C85.7352 16.3604 86.9003 16.2513 87.321 15.5239C87.6123 16.0694 87.8712 16.3604 88.1301 16.615Z" fill="#D18C03" stroke="#D18C03" stroke-width="2" stroke-miterlimit="10" stroke-linecap="round" stroke-linejoin="round"/>
<path d="M165.125 76.5859L165.416 76.7678C166.678 77.3133 165.384 77.7497 165.449 78.1861C164.834 78.1498 164.283 77.9679 163.668 77.9316C163.571 77.8588 163.507 77.7134 163.507 77.7134C164.089 77.2769 164.639 76.8769 165.125 76.5859Z" fill="#D18C03" stroke="#D18C03" stroke-width="2" stroke-miterlimit="10" stroke-linecap="round" stroke-linejoin="round"/>
<path d="M110.494 52.5467C109.814 52.0375 109.167 51.5647 108.455 50.8737C108.358 50.801 108.487 50.4737 108.552 50.3646C108.746 50.1827 109.199 50.0009 109.264 50.1827L110.818 51.8557C110.785 52.1466 110.688 52.3648 110.494 52.5467Z" fill="#D18C03" stroke="#D18C03" stroke-width="2" stroke-miterlimit="10" stroke-linecap="round" stroke-linejoin="round"/>
<path d="M71.5921 108.772C70.9448 108.554 70.6212 108.408 70.2652 108.335C70.3299 108.226 70.4594 108.154 70.5241 108.045C69.9415 107.317 69.5208 106.517 68.9706 105.79C69.8768 105.135 69.715 105.208 70.1357 106.262C70.3946 107.172 71.0095 107.754 71.5921 108.772Z" fill="#D18C03" stroke="#D18C03" stroke-width="2" stroke-miterlimit="10" stroke-linecap="round" stroke-linejoin="round"/>
<path d="M2.65659 12.36C2.46235 12.8329 2.36524 13.3422 2.23575 13.6696C2.13863 13.5969 1.87965 13.6333 1.78253 13.5605C1.4588 13.124 1.16744 12.6511 1.00558 12.1418C0.940836 11.9599 1.4588 11.3778 1.55592 11.4506C1.87965 11.8144 2.23575 12.1418 2.65659 12.36Z" fill="#D18C03" stroke="#D18C03" stroke-width="2" stroke-miterlimit="10" stroke-linecap="round" stroke-linejoin="round"/>
<path d="M73.7929 79.6411L76.1555 80.914C74.1812 81.6777 74.1812 81.6777 73.7929 79.6411Z" fill="#D18C03" stroke="#D18C03" stroke-width="2" stroke-miterlimit="10" stroke-linecap="round" stroke-linejoin="round"/>
<path d="M45.3447 2.43127C44.0178 3.81326 43.2086 2.43127 42.2377 2.03123C43.4352 0.721973 44.0825 2.75859 45.3447 2.43127Z" fill="#D18C03" stroke="#D18C03" stroke-width="2" stroke-miterlimit="10" stroke-linecap="round" stroke-linejoin="round"/>
<path d="M176 78.7683C175.741 78.7683 175.547 78.9502 175.288 78.9502C174.899 79.0229 174.478 79.0957 173.928 79.2048C173.863 79.0229 173.928 78.9138 173.863 78.7683L174.932 78.3317C174.414 78.0407 174.058 78.0043 173.766 77.8588C174.899 77.1676 175.676 77.4587 176 78.7683Z" fill="#D18C03" stroke="#D18C03" stroke-width="2" stroke-miterlimit="10" stroke-linecap="round" stroke-linejoin="round"/>
<path d="M48.9048 98.1526C49.1961 98.3345 49.5199 98.48 49.7788 98.771C50.0702 98.3709 50.3292 98.0798 50.7176 97.4614C50.7824 98.189 50.9443 98.6983 51.009 99.1712C50.6205 99.2439 50.1673 99.4258 49.6817 99.3167C49.3256 99.2803 49.0019 98.8074 48.7105 98.6619L48.9048 98.1526Z" fill="#D18C03" stroke="#D18C03" stroke-width="2" stroke-miterlimit="10" stroke-linecap="round" stroke-linejoin="round"/>
<path d="M155.028 68.5122C156.096 68.6577 156.322 69.3489 156.29 70.5857C155.481 69.8582 154.704 69.3125 154.089 68.6941C154.218 68.6213 154.607 68.5486 155.028 68.5122Z" fill="#D18C03" stroke="#D18C03" stroke-width="2" stroke-miterlimit="10" stroke-linecap="round" stroke-linejoin="round"/>
<path d="M155.966 73.9314C155.319 73.7132 154.574 73.3494 153.992 73.022C153.894 72.9492 153.927 72.5855 153.927 72.2944C154.38 72.4036 154.801 72.3308 155.157 72.6582C155.448 72.8401 155.74 73.3858 155.999 73.6768C155.902 73.7495 155.869 73.895 155.966 73.9314Z" fill="#D18C03" stroke="#D18C03" stroke-width="2" stroke-miterlimit="10" stroke-linecap="round" stroke-linejoin="round"/>
<path d="M169.883 79.8589C168.815 79.4225 167.844 79.0588 166.808 78.5133L167.002 78.0405C168.038 78.586 168.976 78.9497 170.012 79.4953L169.883 79.8589Z" fill="#D18C03" stroke="#D18C03" stroke-width="2" stroke-miterlimit="10" stroke-linecap="round" stroke-linejoin="round"/>
<path d="M64.4396 102.553C64.6014 103.644 64.8927 104.771 65.0869 105.717C64.7309 105.68 64.3749 105.608 64.0189 105.571C64.2778 104.735 63.3069 103.498 64.4396 102.553Z" fill="#D18C03" stroke="#D18C03" stroke-width="2" stroke-miterlimit="10" stroke-linecap="round" stroke-linejoin="round"/>
<path d="M136.774 66.876C136.871 66.3667 136.903 65.9666 136.968 65.5664C137.68 65.6755 138.231 65.821 138.943 65.9302C139.008 66.1121 138.943 66.2212 139.008 66.3667C138.328 66.4395 137.583 66.7669 136.774 66.876Z" fill="#D18C03" stroke="#D18C03" stroke-width="2" stroke-miterlimit="10" stroke-linecap="round" stroke-linejoin="round"/>
<path d="M84.3439 16.0337C84.3439 15.7427 84.441 15.5244 84.5705 15.1607L83.9554 14.8333C84.3439 14.4695 84.7 14.2512 85.1532 13.7783C85.2504 13.8511 85.5093 14.1057 85.8331 14.5422C85.6712 15.3062 85.2827 15.961 84.3439 16.0337Z" fill="#D18C03" stroke="#D18C03" stroke-width="2" stroke-miterlimit="10" stroke-linecap="round" stroke-linejoin="round"/>
<path d="M75.2494 13.8145C75.7673 13.8145 76.2205 13.9236 76.4795 13.8872C76.0911 14.5056 75.735 15.0513 75.2494 15.888C75.217 15.0877 75.2817 14.6875 75.2494 13.8145Z" fill="#D18C03" stroke="#D18C03" stroke-width="2" stroke-miterlimit="10" stroke-linecap="round" stroke-linejoin="round"/>
<path d="M26.7351 84.4778C26.8322 84.2595 26.7675 84.0776 26.8646 83.8594C26.7675 84.0776 26.7999 84.3687 26.7351 84.4778Z" fill="#D18C03" stroke="#D18C03" stroke-width="2" stroke-miterlimit="10" stroke-linecap="round" stroke-linejoin="round"/>
<path d="M85.8646 65.3846L84.473 63.3844C85.1202 63.3117 85.7352 63.348 86.3825 63.2753C87.1268 62.9843 85.3468 62.1479 86.6737 62.0024C87.7418 61.8569 87.0945 62.8025 87.1916 63.1298L85.8646 65.3846Z" fill="#D18C03" stroke="#D18C03" stroke-width="2" stroke-miterlimit="10" stroke-linecap="round" stroke-linejoin="round"/>
<path d="M82.111 62.1113C83.2765 62.8752 82.1758 63.7119 82.111 64.5122C81.1722 64.9851 80.6866 64.0393 80.5571 63.4208C80.3953 62.6205 81.1075 62.1476 81.8521 62.1476C82.0139 62.0385 82.0139 62.0385 82.111 62.1113Z" fill="#D18C03" stroke="#D18C03" stroke-width="2" stroke-miterlimit="10" stroke-linecap="round" stroke-linejoin="round"/>
<path d="M61.5593 52.365C61.268 52.4741 60.8149 52.6559 60.556 52.6559C60.0381 52.6559 59.585 52.5468 59.229 52.5105C59.2614 51.8195 58.8083 50.8739 59.9734 51.0921C59.9734 51.0921 60.0705 50.583 60.1676 50.3647C60.0058 51.5285 60.6854 52.0377 61.5593 52.365Z" fill="#D18C03" stroke="#D18C03" stroke-width="2" stroke-miterlimit="10" stroke-linecap="round" stroke-linejoin="round"/>
<path d="M84.3115 66.0757C84.0201 65.8938 83.664 65.8574 83.3403 65.7119C83.2756 65.53 83.2432 65.3845 83.2756 65.2754C83.3403 65.1663 83.2756 64.9844 83.3079 64.8752L83.5022 64.9844C83.4051 64.9116 83.4374 64.8025 83.3403 64.7661C83.5345 64.8752 83.7612 64.9844 84.0201 65.2754C84.0525 65.53 84.2144 65.7483 84.3115 66.0757Z" fill="#D18C03" stroke="#D18C03" stroke-width="2" stroke-miterlimit="10" stroke-linecap="round" stroke-linejoin="round"/>
<path d="M85.7681 65.6025L85.5091 66.1846C85.153 66.1482 84.6351 66.1482 84.279 66.1118L84.4408 65.7844C84.8617 65.6753 85.3796 65.6753 85.7681 65.6025Z" fill="#D18C03" stroke="#D18C03" stroke-width="2" stroke-miterlimit="10" stroke-linecap="round" stroke-linejoin="round"/>
<path d="M85.4441 67.5305C85.4441 67.2395 85.3793 67.094 85.4764 66.8394L85.7678 67.0212C85.6059 67.2031 85.5412 67.3123 85.4441 67.5305Z" fill="#D18C03" stroke="#D18C03" stroke-width="2" stroke-miterlimit="10" stroke-linecap="round" stroke-linejoin="round"/>
<path d="M85.9295 66.4038L85.7353 66.2942C85.8972 66.2212 85.9943 66.2942 86.1238 66.2212C85.9943 66.2942 85.9943 66.2942 85.9295 66.4038Z" fill="#D18C03" stroke="#D18C03" stroke-width="2" stroke-miterlimit="10" stroke-linecap="round" stroke-linejoin="round"/>
<path d="M85.7353 66.2937L85.4763 66.8757C85.4763 66.5847 85.4763 66.2937 85.5087 66.1846L85.7353 66.2937Z" fill="#D18C03" stroke="#D18C03" stroke-width="2" stroke-miterlimit="10" stroke-linecap="round" stroke-linejoin="round"/>
</svg>
