<svg width="741" height="622" viewBox="0 0 741 622" fill="none" xmlns="http://www.w3.org/2000/svg">
<path opacity="0.3" fill-rule="evenodd" clip-rule="evenodd" d="M711.827 503.088C715.209 505.602 717.308 506.263 718.657 505.882L740.404 441.607C737.747 439.279 734.272 437.68 730.996 435.96C717.267 429.207 703.95 423.125 690.089 416.908C675.692 410.559 660.891 403.542 646.491 397.231C640.968 394.18 634.777 391.534 628.636 388.914L628.771 388.369C634.402 388.599 640.445 389.501 648.232 390.254C653.391 395.369 661.022 395.912 668.945 396.464C671.521 396.646 674.136 396.831 676.717 397.173C680.069 397.42 683.561 397.134 685.276 392.414C686.73 388.787 689.252 385.405 691.922 381.5C694.069 382.02 696.354 382.014 701.196 383.18C698.242 381.323 697.158 381.065 696.218 380.264C703.601 380.348 707.328 376.693 708.362 370.117C709.774 359.63 711.184 349.151 714.072 339.597C717.757 326.815 709.674 322.573 700.529 318.069C689.36 312.507 678.314 306.405 667.945 299.902C665.394 298.714 665.369 294.105 664.399 291.067C666.678 291.05 669.37 291.705 673.254 292.093C673.522 291.51 673.909 290.99 674.391 290.566C675.527 289.508 676.371 288.175 676.842 286.696C679.607 277.681 682.369 268.675 684.053 259.393C684.122 259.013 684.201 258.635 684.27 258.255C686.179 248.221 688.206 237.577 673.962 233.014C673.679 232.918 673.496 232.413 673.275 231.728C673.081 231.057 672.811 230.41 672.471 229.8L677.698 229.362C677.278 226.412 676.594 224.536 676.447 222.791C680.693 222.161 684.898 221.281 689.041 220.156C687.282 218.024 685.93 216.552 684.174 214.411C691.96 215.164 696.689 212.33 698.473 204.786C699.787 199.772 701.367 194.831 703.206 189.984C705.719 184.332 704.331 176.011 699.757 173.763C685.088 166.209 670.42 158.655 654.939 152.048C637.455 144.379 619.3 137.123 601.674 129.987C588.223 124.451 574.109 119.301 560.396 114.829C540.921 108.387 521.68 103.148 502.056 97.2375C473.443 88.5417 444.264 79.7727 415.498 71.6457C394.799 65.4797 374.25 61.0494 353.287 55.9564C331.787 50.7313 310.419 44.9696 288.528 41.3658C263.816 37.635 239.362 30.5532 213.862 30.0532C199.237 29.3512 185.252 23.6738 170.471 21.2242C150.191 18.0079 130.194 15.9908 109.782 13.3109C94.3409 11.2687 78.4961 8.55793 62.3868 6.92015C41.3063 4.64469 20.2316 2.38105 -0.489428 0.75925C-12.1635 -0.372935 -24.2374 0.113207 -36.1791 0.0628638C-47.5847 0.144609 -58.5748 0.889123 -69.4414 1.09413C-89.302 0.827433 -109.986 -3.05752 -129.324 6.44827C-130.557 23.2423 -132.338 39.91 -131.825 56.5461C-132.046 64.4712 -128.377 72.7668 -124.31 79.4529C-122.885 81.7871 -118.906 82.7983 -115.037 83.7825C-113.441 84.1517 -111.866 84.6026 -110.316 85.1332C-109.905 85.5195 -109.559 85.9693 -109.291 86.4655C-109.039 86.8855 -108.837 87.2198 -108.581 87.277C-109.469 88.4059 -110.435 89.4717 -111.471 90.4665C-113.403 92.4236 -115.208 94.2367 -115.369 96.458C-116.125 104.251 -116.478 112.712 -115.079 121.028C-111.747 140.066 -111.862 140.609 -131.475 139.263C-132.011 139.131 -133.216 139.403 -133.755 139.28C-144.471 138.954 -155.479 139.693 -166.494 138.153C-179.119 136.226 -189.422 141.134 -199.728 143.756C-199.69 150.596 -199.258 155.835 -198.814 161.069C-198.792 165.628 -197.812 170.994 -197.256 175.694C-197.017 179.67 -197.05 183.658 -197.358 187.63C-197.21 188.271 -197.715 188.918 -198.151 189.48C-198.587 190.042 -198.869 190.409 -198.679 190.72C-195.716 199.417 -193.074 207.463 -188.727 215.357C-191.674 217.062 -194.71 218.607 -197.822 219.984C-195.168 237.158 -193.047 254.19 -191.209 270.023C-200.188 271.833 -207.007 274.156 -214.242 275.816C-221.073 278.145 -227.772 279.937 -236.347 282.415C-232.867 286.676 -230.257 290.16 -227.682 293.633C-231.55 297.821 -232.423 308.432 -228.46 313.388C-224.497 318.345 -221.686 323.01 -223.798 329.34C-224.466 332.069 -225.371 335.792 -224.407 338.877C-222.493 345.032 -219.906 350.794 -217.992 356.949C-215.252 366.742 -212.63 377.058 -209.352 386.975C-208.113 391.256 -205.011 394.857 -202.975 398.206C-200.891 398.756 -198.836 399.412 -196.818 400.171C-193.198 401.455 -189.471 402.775 -185.936 402.916C-177.478 403.256 -172.892 407.793 -170.029 414.752C-168.794 419.041 -169.97 423.885 -168.072 427.758C-165.213 434.726 -161.55 440.743 -157.887 446.76C-155.04 451.438 -156.644 453.328 -161.055 455.107C-166.847 457.679 -172.562 460.287 -177.114 462.599C-175.459 469.839 -173.539 476.005 -172.156 482.01C-170.533 488.609 -166.405 494.313 -160.647 497.914C-160.795 498.002 -160.996 498.101 -161.223 498.221C-162.051 498.631 -163.251 499.239 -163.458 500.085C-165.691 506.946 -154.339 521.102 -146.973 521.18C-142.359 521.233 -137.746 521.021 -133.156 520.545C-127.261 519.702 -121.23 518.314 -115.335 517.471C-112.923 516.918 -109.843 515.96 -106.224 515.125C-105.953 516.33 -104.197 518.471 -102.974 520.471C-97.2019 520.168 -92.3717 521.339 -87.5328 522.513L-80.0049 524.351C-74.6312 525.923 -69.2322 525.267 -63.7976 524.593C-57.9441 523.875 -52.0463 523.141 -46.0557 525.188C-43.9488 526.088 -41.4089 525.243 -38.4762 524.255C-37.1118 523.8 -35.6676 523.313 -34.1032 522.966C-34.2796 523.487 -33.9552 524.71 -34.0875 525.247C-27.6405 526.817 -21.1935 528.388 -14.4938 528.921C3.89487 530.542 21.6152 532.567 39.4678 534.056C44.439 534.693 49.7984 533.718 55.3057 534.488C63.0923 535.241 71.018 537.735 78.8017 538.497C82.1619 538.747 86.4404 537.505 89.3881 537.084C89.9719 537.585 90.5275 538.119 91.0523 538.682C92.0792 539.748 92.8949 540.596 93.7067 540.407C104.721 541.947 115.85 542.973 126.461 543.815C132.104 544.039 137.999 543.197 143.374 544.503C155.735 547.503 167.292 551.453 179.662 554.456C180.734 554.72 182.203 553.345 185.558 553.613C186.765 553.332 187.433 552.927 188.505 553.192C189.482 553.457 190.416 553.859 191.28 554.387C192.204 555.009 193.251 555.423 194.351 555.599C195.45 555.776 196.575 555.71 197.647 555.408C204.487 553.84 213.64 557.42 221.212 560.376L222.499 560.88C228.722 563.489 235.268 564.215 241.884 564.907C248.995 565.678 256.13 566.437 263.062 569.6C267.168 571.836 272.019 572.394 277.02 572.973C281.204 573.462 285.486 573.955 289.533 575.463C298.155 579.07 307.406 580.82 316.786 582.595C321.505 583.482 326.242 584.376 330.916 585.514C341.798 587.59 353.084 590.334 363.834 592.947C367.475 593.824 371.226 594.374 374.976 594.924C381.692 595.905 388.407 596.887 394.635 599.861C397.903 601.577 401.594 602.216 405.262 602.895C408.384 603.327 411.447 604.113 414.392 605.235C424.076 609.862 432.952 608.559 442.725 605.856C447.974 604.859 453.376 605.007 458.563 606.289C460.491 606.931 462.275 607.946 463.812 609.277C465.346 610.611 467.13 611.627 469.061 612.264C482.494 615.529 496.194 617.711 509.892 619.902C515.803 621.341 522.111 621.169 527.205 621.268C528.163 619.542 529.194 617.95 530.151 616.461C532.23 613.224 534.03 610.464 533.838 608.064C532.72 600.228 535.958 600.141 540.706 600.014C541.331 599.998 541.977 599.981 542.637 599.948C544.381 599.799 546.108 597.369 548.249 595.61C557.927 597.959 568.005 600.984 578.343 602.925C584.89 603.939 587.733 601.788 583.131 594.969C590.431 593.292 589.507 589.245 588.584 585.455C588.27 584.297 588.078 583.11 588.011 581.912C590.959 581.49 593.239 581.474 595.65 580.92C597.06 570.442 601.735 567.59 611.148 571.011C613.699 572.2 616.671 574.062 619.231 575.254C620.839 575.65 623.522 576.301 624.326 575.352C625.454 573.404 626.343 571.325 626.971 569.163C627.494 567.005 627.311 565.249 627.743 563.651C628.219 563.81 628.669 564.036 629.081 564.321C629.725 564.855 630.542 565.131 631.378 565.098C632.756 564.655 634.061 564.011 635.252 563.187C632.622 560.199 634.015 558.582 635.415 556.888C636.42 555.72 637.443 554.53 637.157 552.817C644.288 556.264 648.171 554.357 649.735 547.901C649.827 547.477 649.893 547.049 649.933 546.618C650.062 545.568 650.197 544.412 650.656 544.134C655.869 540.972 655.61 536.736 655.338 532.388C655.166 530.613 655.18 528.825 655.382 527.053C656.107 527.272 656.812 527.557 657.486 527.903C658.606 528.56 659.864 528.946 661.16 529.028C664.108 528.607 668.931 527.5 669.991 525.474C671.854 521.277 672.893 516.604 674.071 511.348C674.484 509.517 674.888 507.683 675.369 505.708L711.913 514.585C711.882 510.023 711.598 506.528 711.838 503.171" fill="#F6E9E1"/>
</svg>
