<svg width="158" height="79" viewBox="0 0 158 79" fill="none" xmlns="http://www.w3.org/2000/svg">
<path d="M105.507 23.5902C105.967 23.8203 106.484 23.9928 106.887 24.2803C107.462 24.7404 107.98 25.0854 108.67 25.5455C107.117 26.4656 105.104 26.0055 104.874 24.7404C103.436 25.2004 103.148 25.0854 103.263 23.8203C102.746 24.1078 102.113 24.3953 101.826 24.5679C101.423 24.2228 101.25 23.8778 100.905 23.4752C100.905 23.4752 101.02 23.0727 101.02 22.7852C102.861 23.7628 102.861 23.7628 103.666 22.8427C104.241 23.1302 104.816 23.3027 105.507 23.5902Z" fill="#213B3B" stroke="#213B3B" stroke-width="1.5" stroke-miterlimit="10" stroke-linecap="round" stroke-linejoin="round"/>
<path d="M121.611 76.7264C121.726 76.5539 121.841 76.4964 121.956 76.3239C122.071 76.2664 122.359 76.2664 122.531 76.1514C122.877 76.3814 123.279 76.5539 123.567 76.7839C123.279 77.7041 123.279 77.8191 122.244 77.0715C122.244 77.3015 122.186 77.359 122.244 77.474C122.301 77.589 122.186 77.7616 122.301 77.9916C121.381 77.8766 121.381 77.359 121.611 76.7264Z" fill="#213B3B" stroke="#213B3B" stroke-width="1.5" stroke-miterlimit="10" stroke-linecap="round" stroke-linejoin="round"/>
<path d="M94.9227 21.2898C93.9449 20.9448 93.2547 20.7148 92.6221 20.5423C93.2547 19.7947 93.6574 19.2196 94.1175 18.6445C92.9672 19.6221 94.29 20.3122 94.9227 21.2898Z" fill="#213B3B" stroke="#213B3B" stroke-width="1.5" stroke-miterlimit="10" stroke-linecap="round" stroke-linejoin="round"/>
<path d="M82.0399 64.9951C82.0399 64.9951 82.1549 65.0526 82.0399 64.9951C82.7301 65.2826 83.2477 65.6277 83.8804 65.9152L83.7078 66.2602C82.7876 65.7427 81.8673 65.3401 80.832 64.8226L81.0046 64.4775C81.4072 64.7076 81.6948 64.8226 82.0399 64.9951Z" fill="#213B3B" stroke="#213B3B" stroke-width="1.5" stroke-miterlimit="10" stroke-linecap="round" stroke-linejoin="round"/>
<path d="M99.4087 21.4053C99.7538 21.6353 100.041 21.7503 100.386 22.0378C100.559 22.2104 100.674 22.3829 100.847 22.4404C100.329 22.3254 99.6963 22.1529 99.2361 22.1529C99.0061 22.1529 98.891 22.3829 98.661 22.5554C98.4884 22.6704 98.3159 22.7854 98.0858 22.7279C97.9133 22.6704 97.6257 22.4404 97.6257 22.3254C97.5682 22.2104 97.8558 21.9228 97.9708 21.8653L99.4087 21.4053Z" fill="#213B3B" stroke="#213B3B" stroke-width="1.5" stroke-miterlimit="10" stroke-linecap="round" stroke-linejoin="round"/>
<path d="M20.7852 63.1551C21.9355 62.58 21.1303 61.4299 21.7054 60.7398C22.1655 60.9698 22.6257 61.2573 23.5459 61.6599C23.3159 61.0273 23.0858 60.5097 22.7982 59.9922C23.0283 59.9922 23.1433 60.0497 23.3734 60.0497C24.0636 60.2222 24.6963 60.3947 25.3289 60.5673C24.6387 60.9698 24.8113 61.7749 25.2139 62.0624C25.8466 62.4075 25.7315 63.9602 27.1119 63.2701C26.9969 63.4426 27.0544 63.7876 26.9969 63.7301C26.5943 63.7876 26.1917 63.9026 25.9616 63.7301C25.5015 63.3276 25.0413 62.81 24.3512 62.1199C23.4884 62.2925 22.1655 62.7525 20.7852 63.1551Z" fill="#213B3B" stroke="#213B3B" stroke-width="1.5" stroke-miterlimit="10" stroke-linecap="round" stroke-linejoin="round"/>
<path d="M24.4661 44.0051C23.8334 43.8326 23.4308 43.7751 23.1432 43.66C21.6478 43.1425 21.3602 43.315 20.9001 44.8102C20.555 44.3501 20.1523 44.0626 20.1523 43.7751C20.2099 43.4875 20.67 43.2575 21.0151 43.0275C20.9001 42.97 20.67 42.7974 20.555 42.6249C20.3824 42.4524 20.2099 42.1649 20.1523 41.8198C21.3602 42.9125 23.4883 41.9348 24.4661 44.0051Z" fill="#213B3B" stroke="#213B3B" stroke-width="1.5" stroke-miterlimit="10" stroke-linecap="round" stroke-linejoin="round"/>
<path d="M21.8206 39.7498C22.1657 39.8073 22.5683 39.8648 22.9709 39.8073C23.201 40.2098 23.431 40.7274 23.6611 41.36C22.5108 40.8999 21.418 40.3249 20.1526 39.8073C20.0376 40.2098 19.9225 40.6699 19.865 41.0149L19.75 40.9574C19.75 40.3249 19.75 39.6348 19.8075 38.8872C19.9225 38.8297 20.2101 38.9447 20.3827 38.9447L20.2676 39.1747C20.7278 39.4623 21.1879 39.6923 21.533 39.9223C21.648 39.9798 21.7631 39.9223 21.8781 39.9798C21.8206 39.9798 21.8781 39.9223 21.8206 39.7498Z" fill="#213B3B" stroke="#213B3B" stroke-width="1.5" stroke-miterlimit="10" stroke-linecap="round" stroke-linejoin="round"/>
<path d="M88.7128 33.4238C89.288 33.6539 89.6906 33.7689 90.0357 33.9989C90.5533 34.3439 91.8762 33.8264 91.7036 35.2065C90.7259 35.0915 89.6906 34.9765 88.8278 34.689C87.735 34.4014 88.6553 33.7689 88.7128 33.4238Z" fill="#213B3B" stroke="#213B3B" stroke-width="1.5" stroke-miterlimit="10" stroke-linecap="round" stroke-linejoin="round"/>
<path d="M72.3764 14.5617C71.3411 15.3668 71.1111 16.2294 72.3764 16.9769C71.8013 16.9194 71.4562 15.8843 70.7084 16.8044C70.3633 16.5744 70.1908 16.2869 69.8457 15.9993L70.9385 14.6192C71.1686 14.3891 71.3986 14.2166 71.5712 13.8716C71.8588 14.1591 72.1463 14.3316 72.3764 14.5617Z" fill="#213B3B" stroke="#213B3B" stroke-width="1.5" stroke-miterlimit="10" stroke-linecap="round" stroke-linejoin="round"/>
<path d="M143.409 51.0783C144.675 50.9058 145.192 51.6534 145.767 52.401C145.71 52.4585 145.71 52.6885 145.652 52.8035C145.135 52.6885 144.444 52.631 144.042 52.3435C143.582 51.9984 143.524 51.4808 143.409 51.0783Z" fill="#213B3B" stroke="#213B3B" stroke-width="1.5" stroke-miterlimit="10" stroke-linecap="round" stroke-linejoin="round"/>
<path d="M17.1036 15.7119C16.9886 15.6544 16.9311 15.5394 16.7585 15.4819C16.4709 14.4467 17.6213 15.0218 18.0239 14.6768C18.7716 15.4243 19.3467 16.1719 18.2539 17.092C17.5637 17.0345 17.2762 16.747 17.9088 16.2294C17.7938 16.1719 17.8513 16.1144 17.7363 16.0569L17.1036 15.7119Z" fill="#213B3B" stroke="#213B3B" stroke-width="1.5" stroke-miterlimit="10" stroke-linecap="round" stroke-linejoin="round"/>
<path d="M4.04836 57.4038C3.81829 57.6338 3.41568 57.8638 3.24313 57.9788C2.55294 57.6913 1.74771 57.4613 1 57.1162L1.11503 56.9437C1.28758 57.0012 1.51765 57.0012 1.74771 57.1162C1.74771 56.8862 1.63268 56.6562 1.69019 56.3687C2.66797 56.5987 3.81829 56.2536 4.04836 57.4038Z" fill="#213B3B" stroke="#213B3B" stroke-width="1.5" stroke-miterlimit="10" stroke-linecap="round" stroke-linejoin="round"/>
<path d="M17.794 59.9919C18.1966 59.9343 18.4267 59.9343 18.9443 59.8193C18.8293 60.0494 18.5992 60.2219 18.5417 60.3944C19.1744 60.7394 20.3822 60.8545 19.7496 62.0621C18.9443 61.602 18.0816 61.027 17.2764 60.5669C17.4489 60.3944 17.6215 60.2219 17.794 59.9919Z" fill="#213B3B" stroke="#213B3B" stroke-width="1.5" stroke-miterlimit="10" stroke-linecap="round" stroke-linejoin="round"/>
<path d="M54.0304 52.8037C53.8579 53.3788 53.7428 53.9538 53.5703 54.4714C55.5258 55.3915 55.5258 55.3915 55.7559 55.9091C54.8356 56.0241 53.6853 55.334 52.9951 54.0114C53.2252 53.6088 53.5703 53.1488 54.0304 52.8037Z" fill="#213B3B" stroke="#213B3B" stroke-width="1.5" stroke-miterlimit="10" stroke-linecap="round" stroke-linejoin="round"/>
<path d="M50.1185 11.5713C49.6583 12.2039 49.3132 12.6064 49.0832 13.124C48.9681 12.6639 48.8531 12.4339 48.7956 12.0888C48.3355 12.3189 47.9904 12.4914 47.4727 12.7789C47.3002 12.4914 47.0701 12.2039 46.9551 12.0313C47.9329 11.8013 48.9106 11.6863 50.1185 11.5713Z" fill="#213B3B" stroke="#213B3B" stroke-width="1.5" stroke-miterlimit="10" stroke-linecap="round" stroke-linejoin="round"/>
<path d="M9.62722 50.2733C9.56971 50.3308 9.51219 50.3308 9.45467 50.3883C7.84422 51.2509 8.24683 49.5832 7.55664 49.1807C8.24683 49.5257 9.33964 49.2382 9.62722 50.2733Z" fill="#213B3B" stroke="#213B3B" stroke-width="1.5" stroke-miterlimit="10" stroke-linecap="round" stroke-linejoin="round"/>
<path d="M72.4925 19.1046C71.4572 20.4272 70.5369 19.2196 69.3291 18.932C69.9043 18.5295 70.1918 18.357 70.7095 18.127C70.9395 19.1621 71.6297 19.2196 72.4925 19.1046Z" fill="#213B3B" stroke="#213B3B" stroke-width="1.5" stroke-miterlimit="10" stroke-linecap="round" stroke-linejoin="round"/>
<path d="M26.8813 42.6247C26.7662 43.0272 26.8237 43.4298 26.7087 43.7748C26.3061 43.6023 25.7885 43.4873 25.5584 43.3147C25.3858 43.1422 25.5009 42.7972 25.4434 42.4521C25.846 42.5097 26.4211 42.5672 26.8813 42.6247Z" fill="#213B3B" stroke="#213B3B" stroke-width="1.5" stroke-miterlimit="10" stroke-linecap="round" stroke-linejoin="round"/>
<path d="M57.7675 13.1244C57.4224 13.527 57.1923 13.9295 56.9623 14.217C56.0995 14.0445 55.9845 13.5845 56.4446 13.0669L56.7897 12.3768L56.6747 12.4918C57.6525 11.9743 57.6525 12.6644 57.7675 13.1244Z" fill="#213B3B" stroke="#213B3B" stroke-width="1.5" stroke-miterlimit="10" stroke-linecap="round" stroke-linejoin="round"/>
<path d="M76.0017 19.5071C76.0592 19.6221 76.1742 19.6797 76.1742 19.7947C76.1742 20.0247 76.1742 20.1972 76.1167 20.3697C75.5991 20.2547 74.9089 20.1972 74.0461 19.9097C73.8161 19.2771 74.9089 19.2196 75.3115 18.6445C75.5416 19.1046 75.7716 19.3346 76.0017 19.5071Z" fill="#213B3B" stroke="#213B3B" stroke-width="1.5" stroke-miterlimit="10" stroke-linecap="round" stroke-linejoin="round"/>
<path d="M146.457 54.0684L146.745 54.1834C147.953 54.5859 146.687 54.8735 146.745 55.2185C146.17 55.161 145.652 55.046 145.077 55.046C144.962 54.9885 144.904 54.8734 144.904 54.8734C145.479 54.5859 145.997 54.2984 146.457 54.0684Z" fill="#213B3B" stroke="#213B3B" stroke-width="1.5" stroke-miterlimit="10" stroke-linecap="round" stroke-linejoin="round"/>
<path d="M95.384 36.2992C94.7513 35.9541 94.1186 35.5516 93.486 35.0915C93.3709 35.034 93.5435 34.804 93.601 34.689C93.7735 34.574 94.2337 34.4014 94.2337 34.574L95.6716 35.7816C95.6716 35.9541 95.5565 36.1266 95.384 36.2992Z" fill="#213B3B" stroke="#213B3B" stroke-width="1.5" stroke-miterlimit="10" stroke-linecap="round" stroke-linejoin="round"/>
<path d="M58.9761 77.8191C58.3434 77.6466 58.0559 77.5316 57.7108 77.5316C57.7683 77.4741 57.8833 77.4166 57.9408 77.3015C57.4232 76.784 57.0206 76.2089 56.5029 75.6338C57.3657 75.1738 57.1931 75.2313 57.5957 75.9789C57.8833 76.6115 58.4585 77.0715 58.9761 77.8191Z" fill="#213B3B" stroke="#213B3B" stroke-width="1.5" stroke-miterlimit="10" stroke-linecap="round" stroke-linejoin="round"/>
<path d="M14.6887 20.9447C14.5162 21.2897 14.4012 21.6347 14.2861 21.9223C14.1711 21.8648 13.941 21.8648 13.8835 21.8648C13.5959 21.5197 13.3084 21.1747 13.1358 20.8296C13.0783 20.7146 13.5384 20.2546 13.6535 20.3121C13.941 20.5421 14.2861 20.7721 14.6887 20.9447Z" fill="#213B3B" stroke="#213B3B" stroke-width="1.5" stroke-miterlimit="10" stroke-linecap="round" stroke-linejoin="round"/>
<path d="M61.0459 56.3115L63.2315 57.2316C61.391 57.8067 61.391 57.8067 61.0459 56.3115Z" fill="#213B3B" stroke="#213B3B" stroke-width="1.5" stroke-miterlimit="10" stroke-linecap="round" stroke-linejoin="round"/>
<path d="M55.6405 1.6227C54.3751 2.65782 53.6274 1.6227 52.7646 1.33516C53.8575 0.357549 54.4326 1.85272 55.6405 1.6227Z" fill="#213B3B" stroke="#213B3B" stroke-width="1.5" stroke-miterlimit="10" stroke-linecap="round" stroke-linejoin="round"/>
<path d="M156.639 55.6785C156.409 55.6785 156.236 55.7936 156.006 55.7936C155.604 55.8511 155.259 55.9086 154.741 55.9661C154.683 55.8511 154.741 55.736 154.683 55.621L155.661 55.3335C155.201 55.1035 154.856 55.1035 154.568 54.9885C155.661 54.4709 156.351 54.7009 156.639 55.6785Z" fill="#213B3B" stroke="#213B3B" stroke-width="1.5" stroke-miterlimit="10" stroke-linecap="round" stroke-linejoin="round"/>
<path d="M37.7526 69.998C38.0402 70.113 38.3278 70.2281 38.5579 70.4581C38.8454 70.1706 39.0755 69.9405 39.4206 69.4805C39.4781 69.998 39.6507 70.4006 39.7082 70.7456C39.3056 70.8031 38.9029 70.9181 38.5003 70.8606C38.1552 70.8031 37.8677 70.5156 37.5801 70.3431L37.7526 69.998Z" fill="#213B3B" stroke="#213B3B" stroke-width="1.5" stroke-miterlimit="10" stroke-linecap="round" stroke-linejoin="round"/>
<path d="M137.026 48.0879C138.004 48.2029 138.234 48.7205 138.176 49.6406C137.428 49.123 136.681 48.7205 136.105 48.2604C136.278 48.1454 136.623 48.1454 137.026 48.0879Z" fill="#213B3B" stroke="#213B3B" stroke-width="1.5" stroke-miterlimit="10" stroke-linecap="round" stroke-linejoin="round"/>
<path d="M137.945 52.1139C137.312 51.9414 136.679 51.6538 136.104 51.4238C135.989 51.3663 136.047 51.0788 136.047 50.9062C136.449 50.9638 136.852 50.9638 137.197 51.1938C137.485 51.3088 137.715 51.7113 137.945 51.9414C137.887 51.9414 137.83 52.0564 137.945 52.1139Z" fill="#213B3B" stroke="#213B3B" stroke-width="1.5" stroke-miterlimit="10" stroke-linecap="round" stroke-linejoin="round"/>
<path d="M150.944 56.4843C149.966 56.1392 149.046 55.9092 148.068 55.5067L148.241 55.1616C149.219 55.5642 150.081 55.8517 151.059 56.2542L150.944 56.4843Z" fill="#213B3B" stroke="#213B3B" stroke-width="1.5" stroke-miterlimit="10" stroke-linecap="round" stroke-linejoin="round"/>
<path d="M52.304 73.2188C52.4766 74.0238 52.7067 74.8289 52.9367 75.5765C52.5916 75.519 52.2465 75.519 51.959 75.4615C52.1315 74.8289 51.2112 73.9088 52.304 73.2188Z" fill="#213B3B" stroke="#213B3B" stroke-width="1.5" stroke-miterlimit="10" stroke-linecap="round" stroke-linejoin="round"/>
<path d="M119.943 46.8809C120.058 46.4784 120.058 46.1909 120.116 45.9033C120.806 45.9608 121.324 46.0758 121.956 46.1909C122.014 46.3059 121.956 46.4209 122.014 46.5359C121.439 46.5934 120.691 46.7659 119.943 46.8809Z" fill="#213B3B" stroke="#213B3B" stroke-width="1.5" stroke-miterlimit="10" stroke-linecap="round" stroke-linejoin="round"/>
<path d="M72.4916 19.1048C72.4916 18.8748 72.6066 18.7023 72.7216 18.4722L72.1465 18.2422C72.4916 18.0122 72.8367 17.8397 73.2393 17.4946C73.3543 17.5521 73.5844 17.7247 73.872 18.0697C73.6994 18.5297 73.3543 19.0473 72.4916 19.1048Z" fill="#213B3B" stroke="#213B3B" stroke-width="1.5" stroke-miterlimit="10" stroke-linecap="round" stroke-linejoin="round"/>
<path d="M63.9805 17.437C64.4406 17.437 64.9007 17.4945 65.1308 17.4945C64.7857 17.9546 64.4406 18.3571 63.9805 18.9897C63.9805 18.3571 64.038 18.0696 63.9805 17.437Z" fill="#213B3B" stroke="#213B3B" stroke-width="1.5" stroke-miterlimit="10" stroke-linecap="round" stroke-linejoin="round"/>
<path d="M16.9893 59.877C17.104 59.7045 17.0466 59.5895 17.104 59.417C17.0466 59.5895 17.0466 59.8195 16.9893 59.877Z" fill="#213B3B" stroke="#213B3B" stroke-width="1.5" stroke-miterlimit="10" stroke-linecap="round" stroke-linejoin="round"/>
<path d="M72.319 45.7879L70.9961 44.2927C71.6288 44.2352 72.2039 44.2927 72.7791 44.2352C73.4693 44.0052 71.8013 43.4301 73.0667 43.3151C74.0445 43.2001 73.4693 43.8901 73.5843 44.1202L72.319 45.7879Z" fill="#213B3B" stroke="#213B3B" stroke-width="1.5" stroke-miterlimit="10" stroke-linecap="round" stroke-linejoin="round"/>
<path d="M68.8104 43.3727C69.9032 43.9478 68.8679 44.5229 68.8104 45.1554C67.8902 45.5005 67.4876 44.8104 67.3725 44.3503C67.2 43.7753 67.8902 43.4302 68.5804 43.4302C68.7529 43.3152 68.7529 43.3152 68.8104 43.3727Z" fill="#213B3B" stroke="#213B3B" stroke-width="1.5" stroke-miterlimit="10" stroke-linecap="round" stroke-linejoin="round"/>
<path d="M49.6003 36.1265C49.3127 36.2415 48.9101 36.3565 48.68 36.3565C48.2199 36.3565 47.7598 36.299 47.4722 36.2415C47.5297 35.724 47.0696 35.0339 48.1624 35.2064C48.1624 35.2064 48.2774 34.8039 48.3349 34.6313C48.1624 35.5515 48.7951 35.8965 49.6003 36.1265Z" fill="#213B3B" stroke="#213B3B" stroke-width="1.5" stroke-miterlimit="10" stroke-linecap="round" stroke-linejoin="round"/>
<path d="M70.8815 46.3056C70.5939 46.1906 70.2488 46.1331 69.9612 46.0181C69.9037 45.9031 69.8462 45.7881 69.9037 45.6731C69.9612 45.558 69.9037 45.443 69.9612 45.3855L70.1338 45.443C70.0187 45.3855 70.0763 45.328 69.9612 45.2705C70.1338 45.328 70.3638 45.443 70.5939 45.6155C70.6514 45.9031 70.7664 46.0181 70.8815 46.3056Z" fill="#213B3B" stroke="#213B3B" stroke-width="1.5" stroke-miterlimit="10" stroke-linecap="round" stroke-linejoin="round"/>
<path d="M72.2632 45.96L72.0331 46.3625C71.688 46.305 71.2279 46.305 70.8828 46.305L70.9978 46.075C71.4005 46.0175 71.8606 45.96 72.2632 45.96Z" fill="#213B3B" stroke="#213B3B" stroke-width="1.5" stroke-miterlimit="10" stroke-linecap="round" stroke-linejoin="round"/>
<path d="M71.9753 47.3408C71.9753 47.1108 71.9179 46.9958 72.0326 46.8232L72.3195 46.9383C72.09 47.1108 72.0326 47.2258 71.9753 47.3408Z" fill="#213B3B" stroke="#213B3B" stroke-width="1.5" stroke-miterlimit="10" stroke-linecap="round" stroke-linejoin="round"/>
<path d="M72.3766 46.5359L72.2041 46.4784C72.3191 46.4209 72.4342 46.4784 72.6067 46.4209C72.4342 46.4209 72.4342 46.4209 72.3766 46.5359Z" fill="#213B3B" stroke="#213B3B" stroke-width="1.5" stroke-miterlimit="10" stroke-linecap="round" stroke-linejoin="round"/>
<path d="M72.2041 46.4207L71.9746 46.8232C71.9746 46.5932 71.9746 46.4207 72.032 46.3057L72.2041 46.4207Z" fill="#213B3B" stroke="#213B3B" stroke-width="1.5" stroke-miterlimit="10" stroke-linecap="round" stroke-linejoin="round"/>
</svg>
