<svg width="197" height="185" viewBox="0 0 197 185" fill="none" xmlns="http://www.w3.org/2000/svg">
<path d="M134.793 99.0733C135.033 99.6003 135.293 100.102 135.421 100.664C135.553 101.478 135.761 102.147 135.949 103.048C133.973 102.865 132.638 101.118 133.369 99.7528C131.861 99.1985 131.716 98.9146 132.682 97.8232C132.03 97.7538 131.324 97.5983 130.925 97.5253C130.883 96.9084 130.956 96.5095 131 95.8375C131 95.8375 131.36 95.5463 131.609 95.2899C132.386 97.4172 132.386 97.4172 133.762 97.1569C134.057 97.7702 134.463 98.3486 134.793 99.0733Z" fill="#D18C03" stroke="#D18C03" stroke-width="2" stroke-miterlimit="10" stroke-linecap="round" stroke-linejoin="round"/>
<path d="M107.93 159.644C108.127 159.554 108.294 159.606 108.492 159.516C108.658 159.567 108.834 159.71 109.112 159.727C109.206 160.177 109.411 160.593 109.505 161.043C108.565 161.741 108.479 161.796 108.194 160.399C108.031 160.6 107.944 160.655 107.868 160.802C107.816 160.968 107.619 161.058 107.511 161.346C106.848 160.518 107.265 160.106 107.93 159.644Z" fill="#D18C03" stroke="#D18C03" stroke-width="2" stroke-miterlimit="10" stroke-linecap="round" stroke-linejoin="round"/>
<path d="M127.713 89.7638C127.127 88.7901 126.777 88.0906 126.371 87.5121C127.49 87.21 128.249 86.9919 129.029 86.7485C127.37 86.9465 127.938 88.4054 127.713 89.7638Z" fill="#D18C03" stroke="#D18C03" stroke-width="2" stroke-miterlimit="10" stroke-linecap="round" stroke-linejoin="round"/>
<path d="M83.9432 122.041C83.9432 122.041 84.0235 122.148 83.9432 122.041C84.2728 122.766 84.4813 123.434 84.8313 124.134L84.4156 124.339C84.0273 123.275 83.5276 122.246 83.1045 121.071L83.5201 120.866C83.6136 121.317 83.7634 121.646 83.9432 122.041Z" fill="#D18C03" stroke="#D18C03" stroke-width="2" stroke-miterlimit="10" stroke-linecap="round" stroke-linejoin="round"/>
<path d="M131.359 92.9229C131.453 93.3733 131.603 93.7027 131.696 94.153C131.7 94.4058 131.704 94.6585 131.793 94.8562C131.447 94.4094 131.041 93.831 130.664 93.5256C130.462 93.3627 130.158 93.5329 129.926 93.5114C129.673 93.515 129.42 93.5187 129.305 93.3007C129.19 93.0827 129.177 92.7389 129.208 92.5976C129.259 92.431 129.735 92.3579 129.856 92.4141L131.359 92.9229Z" fill="#D18C03" stroke="#D18C03" stroke-width="2" stroke-miterlimit="10" stroke-linecap="round" stroke-linejoin="round"/>
<path d="M34.425 79.1004C35.7835 79.3253 36.0047 77.7141 37.0372 77.4672C37.2769 77.9942 37.4255 78.5308 37.9253 79.5596C38.1922 78.8181 38.4029 78.1976 38.5585 77.4908C38.7598 77.6537 38.8149 77.7399 39.0162 77.9028C39.4775 78.5675 39.8585 79.1256 40.2396 79.6837C39.3352 79.618 38.8502 80.4746 38.9989 81.0112C39.2422 81.791 38.0015 83.1185 39.6474 83.4511C39.4498 83.541 39.2355 83.9088 39.2007 83.7974C38.8581 83.6034 38.404 83.4442 38.3656 83.08C38.2685 82.3769 38.303 81.6139 38.2537 80.4915C37.2953 80.1323 35.8219 79.6895 34.425 79.1004Z" fill="#D18C03" stroke="#D18C03" stroke-width="2" stroke-miterlimit="10" stroke-linecap="round" stroke-linejoin="round"/>
<path d="M52.0144 63.6908C51.6334 63.1327 51.3171 62.7518 51.1721 62.4679C50.326 60.9924 49.9271 60.9194 48.4552 62.0181C48.5246 61.3665 48.3711 60.7844 48.6454 60.5483C48.8945 60.2919 49.4599 60.4164 49.9654 60.4091C49.9306 60.2977 49.8718 59.9587 49.8682 59.706C49.8645 59.4532 49.9375 59.0543 50.1315 58.7117C50.2529 60.5168 52.7517 61.0817 52.0144 63.6908Z" fill="#D18C03" stroke="#D18C03" stroke-width="2" stroke-miterlimit="10" stroke-linecap="round" stroke-linejoin="round"/>
<path d="M52.9972 57.9495C53.2536 58.1986 53.5448 58.5591 53.9125 58.7735C53.8085 59.3137 53.5978 59.9343 53.3308 60.6758C52.7412 59.4493 52.263 58.1881 51.6386 56.8502C51.2781 57.1414 50.8314 57.4876 50.4505 57.804L50.4158 57.6926C50.884 57.1139 51.4588 56.455 52.0337 55.796C52.2002 55.8475 52.3248 56.1565 52.4913 56.208L52.1823 56.3326C52.3106 56.8944 52.5707 57.3962 52.6642 57.8466C52.6989 57.958 52.8655 58.0095 52.9206 58.0957C52.8547 58.1257 52.9661 58.0909 52.9972 57.9495Z" fill="#D18C03" stroke="#D18C03" stroke-width="2" stroke-miterlimit="10" stroke-linecap="round" stroke-linejoin="round"/>
<path d="M113.354 96.9624C113.648 97.5756 113.94 97.9361 114.033 98.3865C114.217 99.0345 115.69 99.4774 114.506 100.684C113.757 99.9114 113.008 99.139 112.477 98.2515C111.836 97.1915 113.105 97.2188 113.354 96.9624Z" fill="#D18C03" stroke="#D18C03" stroke-width="2" stroke-miterlimit="10" stroke-linecap="round" stroke-linejoin="round"/>
<path d="M120.206 58.0859C118.74 58.1485 117.913 58.8111 118.395 60.3251C117.937 59.9132 118.47 58.6373 117.153 59.0293C117.06 58.5789 117.108 58.1597 117.014 57.7093L119.004 57.1543C119.368 57.1159 119.707 57.0571 120.122 56.8522C120.109 57.3828 120.168 57.7218 120.206 58.0859Z" fill="#D18C03" stroke="#D18C03" stroke-width="2" stroke-miterlimit="10" stroke-linecap="round" stroke-linejoin="round"/>
<path d="M145.461 150.254C146.66 150.933 146.543 152.004 146.426 153.075C146.315 153.11 146.177 153.332 146.066 153.366C145.719 152.92 145.227 152.396 145.073 151.814C144.925 151.278 145.302 150.708 145.461 150.254Z" fill="#D18C03" stroke="#D18C03" stroke-width="2" stroke-miterlimit="10" stroke-linecap="round" stroke-linejoin="round"/>
<path d="M61.4075 5.26185C61.3727 5.15045 61.4038 5.0091 61.314 4.81147C61.8815 3.64703 62.3849 4.92863 62.9814 4.91174C63.0655 6.14551 62.9436 7.1709 61.3708 7.31378C60.8784 6.79043 60.7848 6.34005 61.7407 6.23923C61.7059 6.12783 61.7922 6.07271 61.7371 5.98648L61.4075 5.26185Z" fill="#D18C03" stroke="#D18C03" stroke-width="2" stroke-miterlimit="10" stroke-linecap="round" stroke-linejoin="round"/>
<path d="M24.8486 62.4833C24.4845 62.5217 23.979 62.529 23.7466 62.5075C23.417 61.7829 22.9006 61.0319 22.5159 60.2211L22.7135 60.1312C22.8034 60.3288 23.0047 60.4917 23.0946 60.6893C23.2574 60.488 23.3652 60.2005 23.6143 59.9441C24.332 60.8579 25.5275 61.2841 24.8486 62.4833Z" fill="#D18C03" stroke="#D18C03" stroke-width="2" stroke-miterlimit="10" stroke-linecap="round" stroke-linejoin="round"/>
<path d="M34.3167 74.141C34.6593 74.335 34.8606 74.4979 35.3494 74.7685C35.0403 74.8931 34.7876 74.8968 34.5696 75.0118C34.8129 75.7916 35.7379 76.7065 34.3138 77.386C33.9806 76.4086 33.7036 75.3103 33.3704 74.3329C33.7549 74.2693 34.0328 74.286 34.3167 74.141Z" fill="#D18C03" stroke="#D18C03" stroke-width="2" stroke-miterlimit="10" stroke-linecap="round" stroke-linejoin="round"/>
<path d="M69.8876 91.7674C69.3295 92.1484 68.8062 92.6408 68.2528 93.0674C69.1757 95.2713 69.1757 95.2713 68.9602 95.8463C68.1036 95.3613 67.6769 93.9336 68.0957 92.2325C68.6024 92.018 69.2708 91.8094 69.8876 91.7674Z" fill="#D18C03" stroke="#D18C03" stroke-width="2" stroke-miterlimit="10" stroke-linecap="round" stroke-linejoin="round"/>
<path d="M103.979 40.3754C103.113 40.6739 102.551 40.8021 101.938 41.0969C102.208 40.6082 102.291 40.3003 102.505 39.9325C101.965 39.8284 101.546 39.7806 100.894 39.7113C100.967 39.3124 101.015 38.8931 101.011 38.6403C101.954 39.0702 102.866 39.6414 103.979 40.3754Z" fill="#D18C03" stroke="#D18C03" stroke-width="2" stroke-miterlimit="10" stroke-linecap="round" stroke-linejoin="round"/>
<path d="M34.8732 59.5624C34.7618 59.5971 34.7067 59.5109 34.6204 59.566C32.6098 59.2717 34.245 57.9713 33.9717 57.1255C34.3565 57.9366 35.4661 58.418 34.8732 59.5624Z" fill="#D18C03" stroke="#D18C03" stroke-width="2" stroke-miterlimit="10" stroke-linecap="round" stroke-linejoin="round"/>
<path d="M116.867 62.4193C114.989 62.9396 115.175 61.217 114.368 60.1056C115.106 60.1198 115.525 60.1676 116.09 60.2921C115.543 61.4314 116.035 61.9547 116.867 62.4193Z" fill="#D18C03" stroke="#D18C03" stroke-width="2" stroke-miterlimit="10" stroke-linecap="round" stroke-linejoin="round"/>
<path d="M55.0158 63.996C54.6553 64.2873 54.3294 64.6899 53.994 65.0015C53.789 64.5858 53.4427 64.139 53.4043 63.7747C53.4006 63.5219 53.7612 63.2307 53.9756 62.8628C54.2668 63.2234 54.7246 63.6355 55.0158 63.996Z" fill="#D18C03" stroke="#D18C03" stroke-width="2" stroke-miterlimit="10" stroke-linecap="round" stroke-linejoin="round"/>
<path d="M109.113 46.9446C108.551 47.0729 108.049 47.333 107.599 47.4265C107.017 46.7055 107.262 46.1964 108.021 45.9782L108.832 45.5935L108.721 45.6283C109.958 45.7969 109.358 46.4355 109.113 46.9446Z" fill="#D18C03" stroke="#D18C03" stroke-width="2" stroke-miterlimit="10" stroke-linecap="round" stroke-linejoin="round"/>
<path d="M119.484 65.2038C119.432 65.3703 119.488 65.4566 119.411 65.6027C119.248 65.804 119.085 66.0053 118.888 66.0951C118.541 65.6484 118.049 65.1251 117.498 64.2627C117.765 63.5212 118.731 64.1786 119.466 63.9401C119.387 64.5007 119.425 64.8648 119.484 65.2038Z" fill="#D18C03" stroke="#D18C03" stroke-width="2" stroke-miterlimit="10" stroke-linecap="round" stroke-linejoin="round"/>
<path d="M145.768 155.123L145.892 155.432C146.568 156.604 145.318 156.091 145.124 156.434C144.666 156.022 144.34 155.55 143.882 155.138C143.848 155.027 143.879 154.885 143.879 154.885C144.576 154.95 145.227 155.019 145.768 155.123Z" fill="#D18C03" stroke="#D18C03" stroke-width="2" stroke-miterlimit="10" stroke-linecap="round" stroke-linejoin="round"/>
<path d="M116.756 104.129C116.512 103.349 116.274 102.615 116.107 101.689C116.072 101.577 116.356 101.432 116.467 101.398C116.72 101.394 117.174 101.553 117.123 101.72L117.394 103.854C117.206 104.035 117.008 104.125 116.756 104.129Z" fill="#D18C03" stroke="#D18C03" stroke-width="2" stroke-miterlimit="10" stroke-linecap="round" stroke-linejoin="round"/>
<path d="M55.0401 118.555C54.659 117.997 54.4889 117.692 54.2528 117.418C54.3642 117.383 54.5056 117.414 54.617 117.38C54.5713 116.51 54.6921 115.692 54.6715 114.843C55.7424 114.96 55.5759 114.908 55.3126 115.903C55.0049 116.694 55.1572 117.484 55.0401 118.555Z" fill="#D18C03" stroke="#D18C03" stroke-width="2" stroke-miterlimit="10" stroke-linecap="round" stroke-linejoin="round"/>
<path d="M55.4207 8.49437C55.005 8.69935 54.6444 8.99058 54.3605 9.13562C54.3257 9.0242 54.104 8.88646 54.0692 8.77503C54.0619 8.26941 54.1002 7.75898 54.2594 7.30484C54.3109 7.13828 55.0394 7.06144 55.0742 7.17287C55.1222 7.62816 55.2157 8.07865 55.4207 8.49437Z" fill="#D18C03" stroke="#D18C03" stroke-width="2" stroke-miterlimit="10" stroke-linecap="round" stroke-linejoin="round"/>
<path d="M73.0576 99.7861L74.1817 102.153C72.2195 101.439 72.2195 101.439 73.0576 99.7861Z" fill="#D18C03" stroke="#D18C03" stroke-width="2" stroke-miterlimit="10" stroke-linecap="round" stroke-linejoin="round"/>
<path d="M94.1636 28.4781C92.3585 28.5995 92.5031 27.1345 91.9723 26.247C93.6361 26.0945 92.9992 27.9106 94.1636 28.4781Z" fill="#D18C03" stroke="#D18C03" stroke-width="2" stroke-miterlimit="10" stroke-linecap="round" stroke-linejoin="round"/>
<path d="M153 163.474C152.798 163.311 152.545 163.315 152.344 163.152C152.001 162.958 151.634 162.743 151.145 162.473C151.196 162.306 151.308 162.271 151.339 162.13L152.414 162.5C152.174 161.973 151.917 161.724 151.772 161.44C153.04 161.674 153.481 162.364 153 163.474Z" fill="#D18C03" stroke="#D18C03" stroke-width="2" stroke-miterlimit="10" stroke-linecap="round" stroke-linejoin="round"/>
<path d="M43.3481 96.9368C43.4728 97.2459 43.643 97.5502 43.6814 97.9144C44.1319 97.8208 44.4961 97.7824 45.1443 97.599C44.7873 98.143 44.6281 98.5971 44.4137 98.965C44.071 98.771 43.6168 98.6117 43.3004 98.2308C43.044 97.9816 43.057 97.4508 42.912 97.1669L43.3481 96.9368Z" fill="#D18C03" stroke="#D18C03" stroke-width="2" stroke-miterlimit="10" stroke-linecap="round" stroke-linejoin="round"/>
<path d="M142.438 143.187C143.187 143.959 142.976 144.58 142.259 145.415C142.037 144.403 141.738 143.537 141.606 142.722C141.748 142.753 142.09 142.947 142.438 143.187Z" fill="#D18C03" stroke="#D18C03" stroke-width="2" stroke-miterlimit="10" stroke-linecap="round" stroke-linejoin="round"/>
<path d="M140.134 147.526C139.753 146.968 139.378 146.248 139.108 145.655C139.073 145.543 139.302 145.312 139.465 145.111C139.756 145.471 140.124 145.686 140.218 146.136C140.342 146.445 140.263 147.006 140.302 147.37C140.186 147.359 140.079 147.44 140.134 147.526Z" fill="#D18C03" stroke="#D18C03" stroke-width="2" stroke-miterlimit="10" stroke-linecap="round" stroke-linejoin="round"/>
<path d="M147.634 160.38C147.048 159.407 146.497 158.544 145.997 157.516L146.413 157.311C146.912 158.339 147.438 159.181 147.938 160.21L147.634 160.38Z" fill="#D18C03" stroke="#D18C03" stroke-width="2" stroke-miterlimit="10" stroke-linecap="round" stroke-linejoin="round"/>
<path d="M52.9612 109.753C52.4763 110.61 52.0716 111.573 51.6932 112.349C51.4369 112.1 51.2008 111.826 50.9444 111.577C51.6139 111.161 51.5513 109.695 52.9612 109.753Z" fill="#D18C03" stroke="#D18C03" stroke-width="2" stroke-miterlimit="10" stroke-linecap="round" stroke-linejoin="round"/>
<path d="M129.163 130.572C129.524 130.281 129.773 130.025 130.047 129.789C130.54 130.312 130.886 130.759 131.379 131.283C131.327 131.449 131.216 131.484 131.185 131.625C130.616 131.248 129.854 131.006 129.163 130.572Z" fill="#D18C03" stroke="#D18C03" stroke-width="2" stroke-miterlimit="10" stroke-linecap="round" stroke-linejoin="round"/>
<path d="M116.867 62.4199C117.03 62.2186 117.227 62.1286 117.531 61.9584L117.237 61.345C117.742 61.3377 118.141 61.4108 118.758 61.3687C118.793 61.4801 118.852 61.8192 118.859 62.3248C118.306 62.7515 117.637 62.9601 116.867 62.4199Z" fill="#D18C03" stroke="#D18C03" stroke-width="2" stroke-miterlimit="10" stroke-linecap="round" stroke-linejoin="round"/>
<path d="M111.039 55.1641C111.441 55.4899 111.732 55.8505 111.954 55.9882C111.306 56.1717 110.724 56.3252 109.878 56.5985C110.301 56.0245 110.575 55.7884 111.039 55.1641Z" fill="#D18C03" stroke="#D18C03" stroke-width="2" stroke-miterlimit="10" stroke-linecap="round" stroke-linejoin="round"/>
<path d="M33.7691 73.5313C33.9667 73.4414 34.0182 73.2749 34.2159 73.185C34.0182 73.2749 33.8805 73.4966 33.7691 73.5313Z" fill="#D18C03" stroke="#D18C03" stroke-width="2" stroke-miterlimit="10" stroke-linecap="round" stroke-linejoin="round"/>
<path d="M90.4233 97.5172L90.4611 95.258C91.005 95.6148 91.4627 96.0268 92.0066 96.3837C92.7481 96.6506 91.8326 94.9523 92.9455 95.6863C93.8572 96.2575 92.8247 96.5045 92.717 96.792L90.4233 97.5172Z" fill="#D18C03" stroke="#D18C03" stroke-width="2" stroke-miterlimit="10" stroke-linecap="round" stroke-linejoin="round"/>
<path d="M89.3373 92.8919C89.8156 94.1534 88.4916 94.0399 87.9933 94.5528C86.9987 94.2894 87.1507 93.3297 87.3962 92.8204C87.7184 92.1649 88.5368 92.2858 89.1156 92.7541C89.3025 92.7804 89.3025 92.7804 89.3373 92.8919Z" fill="#D18C03" stroke="#D18C03" stroke-width="2" stroke-miterlimit="10" stroke-linecap="round" stroke-linejoin="round"/>
<path d="M78.8168 73.2215C78.5293 73.1137 78.0753 72.9545 77.874 72.7916C77.4714 72.4659 77.1803 72.1054 76.9239 71.8563C77.3358 71.3986 77.5129 70.4595 78.2965 71.3433C78.2965 71.3433 78.657 71.0522 78.8546 70.9623C78.0774 71.6656 78.3207 72.4454 78.8168 73.2215Z" fill="#D18C03" stroke="#D18C03" stroke-width="2" stroke-miterlimit="10" stroke-linecap="round" stroke-linejoin="round"/>
<path d="M88.8282 97.0187C88.7035 96.7096 88.4471 96.4605 88.2768 96.1562C88.3283 95.9896 88.3846 95.8686 88.4709 95.8134C88.5823 95.7787 88.6338 95.6121 88.72 95.557L88.8099 95.7547C88.7752 95.6432 88.8614 95.5881 88.8063 95.5018C88.8962 95.6995 89.0113 95.9176 89.0497 96.2818C88.9323 96.4783 88.936 96.7311 88.8282 97.0187Z" fill="#D18C03" stroke="#D18C03" stroke-width="2" stroke-miterlimit="10" stroke-linecap="round" stroke-linejoin="round"/>
<path d="M90.226 97.6076L89.6989 97.8474C89.4424 97.5982 89.0397 97.2724 88.7833 97.0232L89.0924 96.8985C89.4806 97.0878 89.8833 97.4136 90.226 97.6076Z" fill="#D18C03" stroke="#D18C03" stroke-width="2" stroke-miterlimit="10" stroke-linecap="round" stroke-linejoin="round"/>
<path d="M88.8942 98.7371C89.0571 98.5357 89.0882 98.3943 89.3062 98.2793L89.4309 98.5884C89.2033 98.6124 89.0919 98.6472 88.8942 98.7371Z" fill="#D18C03" stroke="#D18C03" stroke-width="2" stroke-miterlimit="10" stroke-linecap="round" stroke-linejoin="round"/>
<path d="M89.9027 98.2627L89.8128 98.065C89.9793 98.1165 90.0141 98.2279 90.1555 98.259C90.0141 98.2279 90.0141 98.2279 89.9027 98.2627Z" fill="#D18C03" stroke="#D18C03" stroke-width="2" stroke-miterlimit="10" stroke-linecap="round" stroke-linejoin="round"/>
<path d="M89.8131 98.0646L89.2859 98.3043C89.4489 98.103 89.6118 97.9017 89.698 97.8465L89.8131 98.0646Z" fill="#D18C03" stroke="#D18C03" stroke-width="2" stroke-miterlimit="10" stroke-linecap="round" stroke-linejoin="round"/>
</svg>
