<svg width="204" height="92" viewBox="0 0 204 92" fill="none" xmlns="http://www.w3.org/2000/svg">
<path d="M168.863 78.1288C168.553 78.3324 168.338 78.5762 168.313 78.9003C168.26 79.157 168.206 79.4137 168.153 79.6705C168.06 80.0218 168.129 80.3861 168.265 80.7231C168.442 80.9654 168.713 81.2479 169.064 81.3411C169.415 81.4343 169.712 81.3927 170.022 81.1891C170.332 80.9854 170.547 80.7416 170.573 80.4175C170.626 80.1608 170.679 79.9041 170.732 79.6474C170.825 79.296 170.756 78.9318 170.647 78.6622C170.471 78.4198 170.2 78.1373 169.848 78.0441C169.497 77.9509 169.106 77.9524 168.863 78.1288Z" fill="#D18C03"/>
<path d="M146.138 69.8293C145.896 70.0057 145.613 70.2768 145.587 70.6009C145.562 70.925 145.563 71.3165 145.767 71.6262C145.849 71.8284 145.97 71.936 146.052 72.1382C146.256 72.448 146.5 72.6631 146.851 72.7563C147.135 72.8767 147.567 72.7806 147.809 72.6042C148.051 72.4278 148.334 72.1567 148.36 71.8326C148.385 71.5085 148.384 71.117 148.18 70.8073C148.099 70.6051 147.977 70.4975 147.895 70.2953C147.691 69.9855 147.447 69.7704 147.096 69.6772C146.839 69.6242 146.448 69.6256 146.138 69.8293Z" fill="#D18C03"/>
<path d="M195.381 75.2494C196.755 74.3803 195.369 72.1174 193.996 72.9865C192.662 73.761 193.98 76.0512 195.381 75.2494Z" fill="#D18C03"/>
<path d="M174.113 55.6174C173.87 55.7938 173.588 56.0648 173.562 56.389C173.536 56.7131 173.537 57.1046 173.741 57.4143C173.823 57.6165 173.945 57.7241 174.027 57.9263C174.23 58.236 174.474 58.4512 174.825 58.5444C175.109 58.6648 175.541 58.5687 175.783 58.3923C176.026 58.2159 176.308 57.9448 176.334 57.6207C176.36 57.2966 176.358 56.9051 176.155 56.5953C176.073 56.3931 175.951 56.2856 175.869 56.0834C175.666 55.7736 175.422 55.5585 175.07 55.4653C174.719 55.3721 174.355 55.441 174.113 55.6174Z" fill="#D18C03"/>
<path d="M187.917 35.8418C186.544 36.711 187.929 38.9739 189.303 38.1048C190.704 37.3031 189.319 35.0401 187.917 35.8418Z" fill="#D18C03"/>
<path d="M193.225 58.0845C191.851 58.9536 193.236 61.2166 194.61 60.3475C195.984 59.4783 194.599 57.2154 193.225 58.0845Z" fill="#D18C03"/>
<path d="M154.492 47.2389C154.627 47.1844 154.802 47.0353 154.937 46.9808C155.179 46.8044 155.461 46.5333 155.487 46.2092C155.58 45.8578 155.552 45.3989 155.375 45.1566C155.172 44.8468 154.928 44.6317 154.577 44.5385C154.482 44.4984 154.387 44.4582 154.252 44.5127C154.023 44.5271 153.794 44.5414 153.619 44.6906C153.484 44.7451 153.309 44.8942 153.174 44.9487C152.932 45.1251 152.649 45.3962 152.623 45.7203C152.598 46.0444 152.599 46.4359 152.803 46.7457C152.979 46.988 153.155 47.2304 153.412 47.2834C153.507 47.3236 153.507 47.3236 153.601 47.3637C153.858 47.4168 154.222 47.3479 154.492 47.2389Z" fill="#D18C03"/>
<path d="M164.982 32.6465C165.186 32.9563 165.43 33.1714 165.781 33.2646C166.038 33.3176 166.294 33.3707 166.578 33.4911C166.93 33.5843 167.294 33.5155 167.536 33.3391C167.779 33.1627 168.061 32.8916 168.087 32.5675C168.113 32.2434 168.111 31.8519 167.908 31.5421C167.704 31.2324 167.46 31.0173 167.109 30.9241C166.852 30.871 166.595 30.818 166.311 30.6975C165.96 30.6043 165.596 30.6732 165.353 30.8496C165.111 31.026 164.829 31.297 164.803 31.6211C164.777 31.9452 164.778 32.3368 164.982 32.6465Z" fill="#D18C03"/>
<path d="M179.309 44.4194C177.935 45.2885 179.321 47.5514 180.695 46.6823C182.028 45.9078 180.71 43.6176 179.309 44.4194Z" fill="#D18C03"/>
<path d="M160.348 57.2613C160.374 56.9372 160.372 56.5457 160.169 56.236C160.087 56.0338 159.965 55.9262 159.883 55.724C159.68 55.4143 159.436 55.1991 159.084 55.1059C158.8 54.9855 158.369 55.0816 158.126 55.258C157.884 55.4344 157.602 55.7055 157.576 56.0296C157.55 56.3537 157.551 56.7452 157.755 57.055C157.837 57.2572 157.959 57.3647 158.04 57.5669C158.244 57.8767 158.488 58.0918 158.839 58.185C159.123 58.3054 159.555 58.2093 159.797 58.0329C160.04 57.8565 160.322 57.5855 160.348 57.2613Z" fill="#D18C03"/>
<path d="M165.662 66.7193C164.288 67.5884 165.673 69.8514 167.047 68.9822C168.448 68.1805 167.035 65.8501 165.662 66.7193Z" fill="#D18C03"/>
<path d="M144.297 54.027C144.025 53.353 143.213 52.897 142.459 53.3588C141.192 54.106 142.239 56.1137 143.507 55.758C143.642 55.7035 143.709 55.6762 143.844 55.6217C144.491 55.2818 144.543 54.6336 144.297 54.027Z" fill="#D18C03"/>
<path d="M145.748 33.757C145.99 33.5806 146.273 33.3096 146.298 32.9855C146.324 32.6614 146.323 32.2699 146.119 31.9601C146.037 31.7579 145.915 31.6503 145.834 31.4481C145.63 31.1384 145.386 30.9233 145.035 30.8301C144.751 30.7096 144.319 30.8057 144.077 30.9821C143.835 31.1585 143.552 31.4296 143.526 31.7537C143.5 32.0778 143.502 32.4693 143.706 32.7791C143.787 32.9813 143.909 33.0888 143.991 33.291C144.195 33.6008 144.438 33.8159 144.79 33.9091C145.074 34.0295 145.505 33.9334 145.748 33.757Z" fill="#D18C03"/>
<path d="M167.663 45.6778C167.459 45.3681 167.215 45.153 166.864 45.0598C166.512 44.9666 166.216 45.0082 165.906 45.2118C165.771 45.2663 165.596 45.4155 165.461 45.47C165.219 45.6464 164.936 45.9175 164.911 46.2416C164.885 46.5657 164.886 46.9572 165.09 47.2669C165.294 47.5767 165.537 47.7918 165.889 47.885C166.24 47.9782 166.537 47.9366 166.847 47.733C166.982 47.6785 167.156 47.5293 167.291 47.4748C167.534 47.2984 167.816 47.0273 167.842 46.7032C167.868 46.3791 167.866 45.9876 167.663 45.6778Z" fill="#D18C03"/>
<path d="M181.783 23.5791C180.41 24.4483 181.795 26.7112 183.169 25.8421C184.543 24.973 183.157 22.71 181.783 23.5791Z" fill="#D18C03"/>
<path d="M167.15 20.1639C168.524 19.2948 167.138 17.0318 165.764 17.9009C164.363 18.7027 165.776 21.033 167.15 20.1639Z" fill="#D18C03"/>
<path d="M180.565 66.3399C179.191 67.209 180.577 69.472 181.951 68.6028C183.352 67.8011 181.966 65.5382 180.565 66.3399Z" fill="#D18C03"/>
<path d="M177.223 31.6963C175.85 32.5655 177.235 34.8284 178.609 33.9593C179.983 33.0902 178.597 30.8272 177.223 31.6963Z" fill="#D18C03"/>
<path d="M142.495 89.9039H14.3315C12.0284 89.9039 10.1294 88.0048 10.1294 85.7018V6.30658C10.1294 4.00351 12.0284 2.10449 14.3315 2.10449H142.495C144.798 2.10449 146.697 4.00351 146.697 6.30658V85.7018C146.697 88.0048 144.798 89.9039 142.495 89.9039Z" fill="#F6E9E1"/>
<path d="M122.656 78.5099H41.039C38.7359 78.5099 36.8369 76.6109 36.8369 74.3078V24.8525C36.8369 22.5494 38.7359 20.6504 41.039 20.6504H122.656C124.96 20.6504 126.859 22.5494 126.859 24.8525V74.3078C126.859 76.6513 124.96 78.5099 122.656 78.5099Z" fill="white"/>
<path d="M144.677 85.8637H17.2409C15.0186 85.8637 13.2004 84.0455 13.2004 81.8233V4.81195C13.2004 2.58969 15.0186 0.771484 17.2409 0.771484H144.677C146.9 0.771484 148.718 2.58969 148.718 4.81195V81.8637C148.718 84.0455 146.9 85.8637 144.677 85.8637Z" stroke="black" stroke-width="1.5" stroke-miterlimit="10"/>
<path d="M148.717 10.0239H56.3926" stroke="black" stroke-width="1.5" stroke-miterlimit="10"/>
<path d="M51.4633 10.0239H39.3823" stroke="black" stroke-width="1.5" stroke-miterlimit="10"/>
<path d="M134.414 6.63009C135.016 6.63009 135.505 6.14167 135.505 5.53917C135.505 4.93667 135.016 4.44824 134.414 4.44824C133.811 4.44824 133.323 4.93667 133.323 5.53917C133.323 6.14167 133.811 6.63009 134.414 6.63009Z" fill="black"/>
<path d="M130.09 6.63009C130.693 6.63009 131.181 6.14167 131.181 5.53917C131.181 4.93667 130.693 4.44824 130.09 4.44824C129.488 4.44824 129 4.93667 129 5.53917C129 6.14167 129.488 6.63009 130.09 6.63009Z" fill="black"/>
<path d="M125.767 6.63009C126.37 6.63009 126.858 6.14167 126.858 5.53917C126.858 4.93667 126.37 4.44824 125.767 4.44824C125.165 4.44824 124.677 4.93667 124.677 5.53917C124.677 6.14167 125.165 6.63009 125.767 6.63009Z" fill="black"/>
<path d="M125.323 76.9341H43.7057C41.4027 76.9341 39.5037 75.0351 39.5037 72.732V23.2363C39.5037 20.9332 41.4027 19.0342 43.7057 19.0342H125.323C127.626 19.0342 129.525 20.9332 129.525 23.2363V72.6916C129.525 75.0351 127.667 76.9341 125.323 76.9341Z" stroke="black" stroke-width="1.5" stroke-miterlimit="10"/>
<path d="M70.5488 50.1918L65.3421 47.125C64.7405 46.7684 64 47.2201 64 47.9095V54.067C64 54.7803 64.7405 55.232 65.3421 54.8754L70.5488 51.8085C71.1504 51.4281 71.1504 50.5485 70.5488 50.1918Z" fill="#F6E9E1"/>
<path d="M72.5488 50.1918L67.3421 47.125C66.7405 46.7684 66 47.2201 66 47.9095V54.067C66 54.7803 66.7405 55.232 67.3421 54.8754L72.5488 51.8085C73.1504 51.4281 73.1504 50.5485 72.5488 50.1918Z" stroke="black" stroke-width="1.5" stroke-miterlimit="10"/>
<path d="M116.273 44.3682C116.394 44.3682 116.515 44.2469 116.515 44.1257C116.515 44.0045 116.394 43.8833 116.273 43.8833C116.151 43.8833 116.03 44.0045 116.03 44.1257C116.03 44.2469 116.111 44.3682 116.273 44.3682Z" fill="black"/>
<path d="M126.293 44.3682C126.414 44.3682 126.536 44.2469 126.536 44.1257C126.536 44.0045 126.414 43.8833 126.293 43.8833C126.172 43.8833 126.051 44.0045 126.051 44.1257C126.051 44.2469 126.172 44.3682 126.293 44.3682Z" fill="black"/>
<path d="M121.283 44.3682C121.404 44.3682 121.525 44.2469 121.525 44.1257C121.525 44.0045 121.404 43.8833 121.283 43.8833C121.161 43.8833 121.04 44.0045 121.04 44.1257C121.04 44.2469 121.161 44.3682 121.283 44.3682Z" fill="black"/>
<path d="M121.525 51.8833C121.646 51.8833 121.768 51.7621 121.768 51.6409C121.768 51.5197 121.646 51.3984 121.525 51.3984C121.404 51.3984 121.283 51.5197 121.283 51.6409C121.283 51.7621 121.404 51.8833 121.525 51.8833Z" fill="black"/>
<path d="M120.03 47.8833C120.151 47.8833 120.273 47.7621 120.273 47.6409C120.273 47.5197 120.151 47.3984 120.03 47.3984C119.909 47.3984 119.788 47.5197 119.788 47.6409C119.788 47.7621 119.909 47.8833 120.03 47.8833Z" fill="black"/>
<path d="M124.03 46.873C124.151 46.873 124.273 46.7518 124.273 46.6306C124.273 46.5094 124.151 46.3882 124.03 46.3882C123.909 46.3882 123.788 46.5094 123.788 46.6306C123.788 46.7518 123.869 46.873 124.03 46.873Z" fill="black"/>
<path d="M124.273 50.0649C124.394 50.0649 124.515 49.9437 124.515 49.8225C124.515 49.7013 124.394 49.5801 124.273 49.5801C124.151 49.5801 124.03 49.7013 124.03 49.8225C124.03 49.9841 124.111 50.0649 124.273 50.0649Z" fill="black"/>
<path d="M97.6865 20.4888C97.6057 20.5292 97.5249 20.61 97.5249 20.7312C97.5249 20.8524 97.6057 20.9332 97.6865 20.9736C97.7269 20.9736 97.7673 20.9736 97.7673 20.9736V20.4888C97.7269 20.4888 97.6865 20.4888 97.6865 20.4888Z" fill="black"/>
<path d="M95.5046 23.2366C95.5046 23.1154 95.3834 22.9941 95.2622 22.9941C95.141 22.9941 95.0198 23.1154 95.0198 23.2366C95.0198 23.3578 95.141 23.479 95.2622 23.479C95.4238 23.479 95.5046 23.3982 95.5046 23.2366Z" fill="black"/>
<path d="M97.7673 25.499C97.7269 25.499 97.6865 25.499 97.6865 25.499C97.6057 25.5394 97.5249 25.6202 97.5249 25.7415H97.7673V25.499Z" fill="black"/>
<path d="M98.0098 20.7312C98.0098 20.61 97.8885 20.4888 97.7673 20.4888V20.9736C97.929 20.9736 98.0098 20.8928 98.0098 20.7312Z" fill="black"/>
<path d="M98.0098 25.7415C98.0098 25.6202 97.8885 25.499 97.7673 25.499V25.7415H98.0098Z" fill="black"/>
<path d="M97.5249 25.7416C97.5249 25.782 97.5249 25.8224 97.5249 25.8224C97.5653 25.8628 97.6057 25.9436 97.6461 25.9436C97.6865 25.9436 97.7269 25.9436 97.7269 25.9436V25.7012H97.5249V25.7416Z" fill="black"/>
<path d="M95.5046 28.2468C95.5046 28.1256 95.3834 28.0044 95.2622 28.0044C95.141 28.0044 95.0198 28.1256 95.0198 28.2468C95.0198 28.368 95.141 28.4892 95.2622 28.4892C95.4238 28.4892 95.5046 28.4084 95.5046 28.2468Z" fill="black"/>
<path d="M98.0098 25.8625C98.0098 25.8221 98.0098 25.7817 98.0098 25.7817H97.7673V26.0242C97.8885 25.9838 97.9694 25.9434 98.0098 25.8625Z" fill="black"/>
<path d="M103.424 19.9636C103.424 20.0848 103.505 20.1656 103.585 20.206C103.626 20.206 103.666 20.206 103.666 20.206V19.7212C103.626 19.7212 103.585 19.7212 103.585 19.7212C103.464 19.7616 103.424 19.8424 103.424 19.9636Z" fill="black"/>
<path d="M100.919 22.469C100.919 22.5902 101.04 22.7114 101.161 22.7114C101.283 22.7114 101.404 22.5902 101.404 22.469C101.404 22.3478 101.283 22.2266 101.161 22.2266C101 22.2266 100.919 22.3074 100.919 22.469Z" fill="black"/>
<path d="M103.505 24.8123C103.464 24.8527 103.424 24.9335 103.424 24.9739H103.666V24.7314C103.626 24.7314 103.585 24.7314 103.585 24.7314C103.545 24.7718 103.505 24.7719 103.505 24.8123Z" fill="black"/>
<path d="M113.444 19.9636C113.444 20.0848 113.566 20.206 113.687 20.206V19.7212C113.566 19.7212 113.444 19.802 113.444 19.9636Z" fill="black"/>
<path d="M108.434 19.9636C108.434 20.0848 108.555 20.206 108.677 20.206C108.798 20.206 108.919 20.0848 108.919 19.9636C108.919 19.8424 108.798 19.7212 108.677 19.7212C108.555 19.7212 108.434 19.802 108.434 19.9636Z" fill="black"/>
<path d="M110.939 22.469C110.939 22.5902 111.061 22.7114 111.182 22.7114C111.303 22.7114 111.424 22.5902 111.424 22.469C111.424 22.3478 111.303 22.2266 111.182 22.2266C111.061 22.2266 110.939 22.3074 110.939 22.469Z" fill="black"/>
<path d="M105.929 22.469C105.929 22.5902 106.05 22.7114 106.171 22.7114C106.293 22.7114 106.414 22.5902 106.414 22.469C106.414 22.3478 106.293 22.2266 106.171 22.2266C106.05 22.2266 105.929 22.3074 105.929 22.469Z" fill="black"/>
<path d="M113.444 24.9739H113.687V24.7314C113.606 24.7314 113.566 24.7719 113.525 24.8123C113.485 24.8527 113.444 24.8931 113.444 24.9739Z" fill="black"/>
<path d="M108.434 24.9739H108.919C108.919 24.8931 108.879 24.8527 108.838 24.8123C108.798 24.7719 108.717 24.7314 108.677 24.7314C108.596 24.7314 108.555 24.7719 108.515 24.8123C108.434 24.8527 108.434 24.8931 108.434 24.9739Z" fill="black"/>
<path d="M103.909 19.9636C103.909 19.8424 103.788 19.7212 103.667 19.7212V20.206C103.788 20.206 103.909 20.0848 103.909 19.9636Z" fill="black"/>
<path d="M103.909 24.9739C103.909 24.8931 103.869 24.8527 103.828 24.8123C103.788 24.7719 103.707 24.7314 103.667 24.7314V24.9739H103.909Z" fill="black"/>
<path d="M113.929 19.9636C113.929 19.8424 113.808 19.7212 113.687 19.7212V20.206C113.848 20.206 113.929 20.0848 113.929 19.9636Z" fill="black"/>
<path d="M113.929 24.9739C113.929 24.8931 113.889 24.8527 113.848 24.8123C113.808 24.7719 113.727 24.7314 113.687 24.7314V24.9739H113.929Z" fill="black"/>
<path d="M103.424 24.9736C103.424 25.0948 103.505 25.1757 103.585 25.2161C103.626 25.2161 103.666 25.2161 103.666 25.2161V24.9736H103.424Z" fill="black"/>
<path d="M103.424 29.9836C103.424 30.1049 103.505 30.1857 103.585 30.2261C103.626 30.2261 103.666 30.2261 103.666 30.2261V29.7412C103.626 29.7412 103.585 29.7412 103.585 29.7412C103.464 29.7816 103.424 29.9028 103.424 29.9836Z" fill="black"/>
<path d="M100.919 27.4788C100.919 27.6 101.04 27.7212 101.161 27.7212C101.283 27.7212 101.404 27.6 101.404 27.4788C101.404 27.3575 101.283 27.2363 101.161 27.2363C101 27.2363 100.919 27.3575 100.919 27.4788Z" fill="black"/>
<path d="M113.444 24.9736C113.444 25.0948 113.566 25.2161 113.687 25.2161V24.9736H113.444Z" fill="black"/>
<path d="M113.444 29.9836C113.444 30.1049 113.566 30.2261 113.687 30.2261V29.7412C113.566 29.7412 113.444 29.8624 113.444 29.9836Z" fill="black"/>
<path d="M108.677 25.2161C108.798 25.2161 108.919 25.0948 108.919 24.9736H108.434C108.434 25.0948 108.555 25.2161 108.677 25.2161Z" fill="black"/>
<path d="M108.434 29.9836C108.434 30.1049 108.555 30.2261 108.677 30.2261C108.798 30.2261 108.919 30.1049 108.919 29.9836C108.919 29.8624 108.798 29.7412 108.677 29.7412C108.555 29.7412 108.434 29.8624 108.434 29.9836Z" fill="black"/>
<path d="M110.939 27.4788C110.939 27.6 111.061 27.7212 111.182 27.7212C111.303 27.7212 111.424 27.6 111.424 27.4788C111.424 27.3575 111.303 27.2363 111.182 27.2363C111.061 27.2363 110.939 27.3575 110.939 27.4788Z" fill="black"/>
<path d="M105.929 27.4788C105.929 27.6 106.05 27.7212 106.171 27.7212C106.293 27.7212 106.414 27.6 106.414 27.4788C106.414 27.3575 106.293 27.2363 106.171 27.2363C106.05 27.2363 105.929 27.3575 105.929 27.4788Z" fill="black"/>
<path d="M113.444 34.9944H113.687V34.752C113.566 34.752 113.444 34.8732 113.444 34.9944Z" fill="black"/>
<path d="M103.667 25.2161C103.788 25.2161 103.909 25.0948 103.909 24.9736H103.667V25.2161Z" fill="black"/>
<path d="M103.909 29.9836C103.909 29.8624 103.788 29.7412 103.667 29.7412V30.2261C103.788 30.2261 103.909 30.1453 103.909 29.9836Z" fill="black"/>
<path d="M113.687 25.2161C113.808 25.2161 113.929 25.0948 113.929 24.9736H113.687V25.2161Z" fill="black"/>
<path d="M113.929 29.9836C113.929 29.8624 113.808 29.7412 113.687 29.7412V30.2261C113.848 30.2261 113.929 30.1453 113.929 29.9836Z" fill="black"/>
<path d="M113.929 34.9944C113.929 34.8732 113.808 34.752 113.687 34.752V34.9944H113.929Z" fill="black"/>
<path d="M115.505 21.1355C115.505 21.2567 115.626 21.3779 115.747 21.3779C115.869 21.3779 115.99 21.2567 115.99 21.1355C115.99 21.0143 115.869 20.8931 115.747 20.8931C115.626 20.8931 115.505 21.0143 115.505 21.1355Z" fill="black"/>
<path d="M118.01 23.6404H118.252V23.3979C118.212 23.3979 118.171 23.3979 118.171 23.4384C118.091 23.4788 118.01 23.5596 118.01 23.6404Z" fill="black"/>
<path d="M113.444 34.9941C113.444 35.0345 113.444 35.075 113.485 35.075C113.525 35.1558 113.606 35.2366 113.727 35.2366V34.9941H113.444Z" fill="black"/>
<path d="M125.566 21.1355C125.566 21.2567 125.687 21.3779 125.808 21.3779C125.929 21.3779 126.051 21.2567 126.051 21.1355C126.051 21.0143 125.929 20.8931 125.808 20.8931C125.646 20.8931 125.566 21.0143 125.566 21.1355Z" fill="black"/>
<path d="M120.515 21.1355C120.515 21.2567 120.636 21.3779 120.758 21.3779C120.879 21.3779 121 21.2567 121 21.1355C121 21.0143 120.879 20.8931 120.758 20.8931C120.636 20.8931 120.515 21.0143 120.515 21.1355Z" fill="black"/>
<path d="M128.151 23.6394V23.4385C128.111 23.4787 128.071 23.559 128.071 23.6394H128.151Z" fill="black"/>
<path d="M123.061 23.6404H123.545C123.545 23.5192 123.424 23.3979 123.303 23.3979C123.141 23.3979 123.061 23.5192 123.061 23.6404Z" fill="black"/>
<path d="M118.535 23.6404C118.535 23.5192 118.414 23.3979 118.293 23.3979V23.6404H118.535Z" fill="black"/>
<path d="M113.687 35.2366C113.808 35.2366 113.889 35.1558 113.929 35.075C113.929 35.0345 113.97 34.9941 113.97 34.9941H113.727V35.2366H113.687Z" fill="black"/>
<path d="M118.01 23.6405C118.01 23.6809 118.01 23.7213 118.01 23.7213C118.05 23.7617 118.091 23.8425 118.131 23.8425C118.171 23.8425 118.212 23.8425 118.212 23.8425V23.6001H118.01V23.6405Z" fill="black"/>
<path d="M118.01 28.6912C118.01 28.8124 118.091 28.8932 118.171 28.9336C118.212 28.9336 118.252 28.9336 118.252 28.9336V28.4487C118.212 28.4487 118.171 28.4487 118.171 28.4487C118.091 28.4891 118.01 28.5699 118.01 28.6912Z" fill="black"/>
<path d="M115.505 31.1961C115.505 31.3173 115.626 31.4385 115.747 31.4385C115.869 31.4385 115.99 31.3173 115.99 31.1961C115.99 31.0748 115.869 30.9536 115.747 30.9536C115.626 30.9132 115.505 31.0344 115.505 31.1961Z" fill="black"/>
<path d="M115.505 26.1457C115.505 26.267 115.626 26.3882 115.747 26.3882C115.869 26.3882 115.99 26.267 115.99 26.1457C115.99 26.0245 115.869 25.9033 115.747 25.9033C115.626 25.9033 115.505 26.0245 115.505 26.1457Z" fill="black"/>
<path d="M118.091 33.4993C118.05 33.5397 118.01 33.6205 118.01 33.6609H118.252V33.4185C118.212 33.4185 118.171 33.4185 118.171 33.4185C118.131 33.4589 118.131 33.4993 118.091 33.4993Z" fill="black"/>
<path d="M128.071 23.7612C128.071 23.8013 128.111 23.8415 128.151 23.8415V23.6406H128.071C128.071 23.6808 128.071 23.721 128.071 23.7612Z" fill="black"/>
<path d="M123.061 23.762C123.101 23.8428 123.182 23.9236 123.303 23.9236C123.424 23.9236 123.505 23.8428 123.545 23.762C123.545 23.7216 123.545 23.6812 123.545 23.6812H123.061C123.061 23.6812 123.061 23.7216 123.061 23.762Z" fill="black"/>
<path d="M123.061 28.6912C123.061 28.8124 123.182 28.9336 123.303 28.9336C123.424 28.9336 123.545 28.8124 123.545 28.6912C123.545 28.57 123.424 28.4487 123.303 28.4487C123.141 28.4083 123.061 28.5296 123.061 28.6912Z" fill="black"/>
<path d="M125.566 31.1961C125.566 31.3173 125.687 31.4385 125.808 31.4385C125.929 31.4385 126.051 31.3173 126.051 31.1961C126.051 31.0748 125.929 30.9536 125.808 30.9536C125.646 30.9132 125.566 31.0344 125.566 31.1961Z" fill="black"/>
<path d="M125.566 26.1457C125.566 26.267 125.687 26.3882 125.808 26.3882C125.929 26.3882 126.051 26.267 126.051 26.1457C126.051 26.0245 125.929 25.9033 125.808 25.9033C125.646 25.9033 125.566 26.0245 125.566 26.1457Z" fill="black"/>
<path d="M120.515 31.1961C120.515 31.3173 120.636 31.4385 120.758 31.4385C120.879 31.4385 121 31.3173 121 31.1961C121 31.0748 120.879 30.9536 120.758 30.9536C120.636 30.9132 120.515 31.0344 120.515 31.1961Z" fill="black"/>
<path d="M120.515 26.1457C120.515 26.267 120.636 26.3882 120.758 26.3882C120.879 26.3882 121 26.267 121 26.1457C121 26.0245 120.879 25.9033 120.758 25.9033C120.636 25.9033 120.515 26.0245 120.515 26.1457Z" fill="black"/>
<path d="M123.061 33.7014H123.545C123.545 33.6206 123.505 33.5802 123.465 33.5398C123.424 33.4994 123.343 33.459 123.303 33.459C123.222 33.459 123.182 33.4994 123.141 33.5398C123.061 33.5398 123.061 33.6206 123.061 33.7014Z" fill="black"/>
<path d="M118.293 23.9236C118.414 23.9236 118.495 23.8428 118.535 23.762C118.535 23.7216 118.535 23.6812 118.535 23.6812H118.293V23.9236Z" fill="black"/>
<path d="M118.535 28.6912C118.535 28.5699 118.414 28.4487 118.293 28.4487V28.9336C118.414 28.9336 118.535 28.8124 118.535 28.6912Z" fill="black"/>
<path d="M118.535 33.7014C118.535 33.6206 118.495 33.5802 118.454 33.5398C118.414 33.4994 118.333 33.459 118.293 33.459V33.7014H118.535Z" fill="black"/>
<path d="M118.01 33.7012C118.01 33.8224 118.091 33.9032 118.171 33.9436C118.212 33.9436 118.252 33.984 118.252 33.984V33.7012H118.01Z" fill="black"/>
<path d="M118.01 38.7113C118.01 38.8325 118.091 38.9133 118.171 38.9537C118.212 38.9537 118.252 38.9941 118.252 38.9941V38.5093C118.212 38.5093 118.171 38.5093 118.171 38.5497C118.091 38.5093 118.01 38.5901 118.01 38.7113Z" fill="black"/>
<path d="M115.505 41.2165C115.505 41.3378 115.626 41.459 115.747 41.459C115.869 41.459 115.99 41.3378 115.99 41.2165C115.99 41.0953 115.869 40.9741 115.747 40.9741C115.626 40.9741 115.505 41.0549 115.505 41.2165Z" fill="black"/>
<path d="M115.505 36.2063C115.505 36.3275 115.626 36.4487 115.747 36.4487C115.869 36.4487 115.99 36.3275 115.99 36.2063C115.99 36.0851 115.869 35.9639 115.747 35.9639C115.626 35.9639 115.505 36.0447 115.505 36.2063Z" fill="black"/>
<path d="M123.303 33.9436C123.424 33.9436 123.545 33.8224 123.545 33.7012H123.061C123.061 33.8224 123.141 33.9436 123.303 33.9436Z" fill="black"/>
<path d="M123.061 38.7112C123.061 38.8324 123.182 38.9536 123.303 38.9536C123.424 38.9536 123.545 38.8324 123.545 38.7112C123.545 38.59 123.424 38.4688 123.303 38.4688C123.141 38.4687 123.061 38.5496 123.061 38.7112Z" fill="black"/>
<path d="M125.566 41.2165C125.566 41.3378 125.687 41.459 125.808 41.459C125.929 41.459 126.051 41.3378 126.051 41.2165C126.051 41.0953 125.929 40.9741 125.808 40.9741C125.646 40.9741 125.566 41.0549 125.566 41.2165Z" fill="black"/>
<path d="M125.566 36.2063C125.566 36.3275 125.687 36.4487 125.808 36.4487C125.929 36.4487 126.051 36.3275 126.051 36.2063C126.051 36.0851 125.929 35.9639 125.808 35.9639C125.646 35.9639 125.566 36.0447 125.566 36.2063Z" fill="black"/>
<path d="M120.515 41.2165C120.515 41.3378 120.636 41.459 120.758 41.459C120.879 41.459 121 41.3378 121 41.2165C121 41.0953 120.879 40.9741 120.758 40.9741C120.636 40.9741 120.515 41.0549 120.515 41.2165Z" fill="black"/>
<path d="M120.515 36.2063C120.515 36.3275 120.636 36.4487 120.758 36.4487C120.879 36.4487 121 36.3275 121 36.2063C121 36.0851 120.879 35.9639 120.758 35.9639C120.636 35.9639 120.515 36.0447 120.515 36.2063Z" fill="black"/>
<path d="M118.293 33.9436C118.414 33.9436 118.535 33.8224 118.535 33.7012H118.293V33.9436Z" fill="black"/>
<path d="M118.535 38.7112C118.535 38.59 118.414 38.4688 118.293 38.4688V38.9536C118.414 38.9536 118.535 38.8324 118.535 38.7112Z" fill="black"/>
<path d="M63.5041 20.4888C63.4233 20.5292 63.3425 20.61 63.3425 20.7312C63.3425 20.8524 63.4233 20.9332 63.5041 20.9736C63.5446 20.9736 63.585 20.9736 63.585 20.9736V20.4888C63.585 20.4888 63.5446 20.4888 63.5041 20.4888Z" fill="black"/>
<path d="M61.3625 23.2366C61.3625 23.1154 61.2413 22.9941 61.1201 22.9941C60.9989 22.9941 60.8777 23.1154 60.8777 23.2366C60.8777 23.3578 60.9989 23.479 61.1201 23.479C61.2413 23.479 61.3625 23.3982 61.3625 23.2366Z" fill="black"/>
<path d="M63.6255 25.499C63.5851 25.499 63.5447 25.499 63.5447 25.499C63.4639 25.5394 63.3831 25.6202 63.3831 25.7415H63.6255V25.499Z" fill="black"/>
<path d="M63.8679 20.7312C63.8679 20.61 63.7467 20.4888 63.6255 20.4888V20.9736C63.7467 20.9736 63.8679 20.8928 63.8679 20.7312Z" fill="black"/>
<path d="M63.8679 25.7415C63.8679 25.6202 63.7467 25.499 63.6255 25.499V25.7415H63.8679Z" fill="black"/>
<path d="M63.3425 25.7416C63.3425 25.782 63.3425 25.8224 63.3425 25.8224C63.3829 25.8628 63.4233 25.9436 63.4637 25.9436C63.5041 25.9436 63.5446 25.9436 63.5446 25.9436V25.7012H63.3425V25.7416Z" fill="black"/>
<path d="M61.3625 28.2468C61.3625 28.1256 61.2413 28.0044 61.1201 28.0044C60.9989 28.0044 60.8777 28.1256 60.8777 28.2468C60.8777 28.368 60.9989 28.4892 61.1201 28.4892C61.2413 28.4892 61.3625 28.4084 61.3625 28.2468Z" fill="black"/>
<path d="M63.8271 25.8625C63.8271 25.8221 63.8271 25.7817 63.8271 25.7817H63.5847V26.0242C63.7059 25.9838 63.7867 25.9434 63.8271 25.8625Z" fill="black"/>
<path d="M69.2415 19.9636C69.2415 20.0848 69.3223 20.1656 69.4031 20.206C69.4435 20.206 69.4839 20.206 69.4839 20.206V19.7212C69.4435 19.7212 69.4031 19.7212 69.4031 19.7212C69.3223 19.7616 69.2415 19.8424 69.2415 19.9636Z" fill="black"/>
<path d="M66.7366 22.469C66.7366 22.5902 66.8578 22.7114 66.979 22.7114C67.1002 22.7114 67.2214 22.5902 67.2214 22.469C67.2214 22.3478 67.1002 22.2266 66.979 22.2266C66.8578 22.2266 66.7366 22.3074 66.7366 22.469Z" fill="black"/>
<path d="M69.3223 24.8123C69.2819 24.8527 69.2415 24.9335 69.2415 24.9739H69.4839V24.7314C69.4435 24.7314 69.4031 24.7314 69.4031 24.7314C69.3627 24.7718 69.3627 24.7719 69.3223 24.8123Z" fill="black"/>
<path d="M79.262 19.9636C79.262 20.0848 79.3832 20.206 79.5044 20.206V19.7212C79.3832 19.7212 79.262 19.802 79.262 19.9636Z" fill="black"/>
<path d="M74.252 19.9636C74.252 20.0848 74.3732 20.206 74.4944 20.206C74.6156 20.206 74.7368 20.0848 74.7368 19.9636C74.7368 19.8424 74.6156 19.7212 74.4944 19.7212C74.3732 19.7212 74.252 19.802 74.252 19.9636Z" fill="black"/>
<path d="M76.7568 22.469C76.7568 22.5902 76.878 22.7114 76.9993 22.7114C77.1205 22.7114 77.2417 22.5902 77.2417 22.469C77.2417 22.3478 77.1205 22.2266 76.9993 22.2266C76.878 22.2266 76.7568 22.3074 76.7568 22.469Z" fill="black"/>
<path d="M71.7468 22.469C71.7468 22.5902 71.868 22.7114 71.9893 22.7114C72.1105 22.7114 72.2317 22.5902 72.2317 22.469C72.2317 22.3478 72.1105 22.2266 71.9893 22.2266C71.868 22.2266 71.7468 22.3074 71.7468 22.469Z" fill="black"/>
<path d="M79.262 24.9739H79.5044V24.7314C79.4236 24.7314 79.3832 24.7719 79.3428 24.8123C79.3024 24.8527 79.262 24.8931 79.262 24.9739Z" fill="black"/>
<path d="M74.252 24.9739H74.7368C74.7368 24.8931 74.6964 24.8527 74.656 24.8123C74.6156 24.7719 74.5348 24.7314 74.4944 24.7314C74.4136 24.7314 74.3732 24.7719 74.3328 24.8123C74.2924 24.8527 74.252 24.8931 74.252 24.9739Z" fill="black"/>
<path d="M69.7668 19.9636C69.7668 19.8424 69.6456 19.7212 69.5244 19.7212V20.206C69.6456 20.206 69.7668 20.0848 69.7668 19.9636Z" fill="black"/>
<path d="M69.7668 24.9739C69.7668 24.8931 69.7264 24.8527 69.686 24.8123C69.6456 24.7719 69.5648 24.7314 69.5244 24.7314V24.9739H69.7668Z" fill="black"/>
<path d="M79.7871 19.9636C79.7871 19.8424 79.6659 19.7212 79.5447 19.7212V20.206C79.6659 20.206 79.7871 20.0848 79.7871 19.9636Z" fill="black"/>
<path d="M79.7871 24.9739C79.7871 24.8931 79.7467 24.8527 79.7063 24.8123C79.6659 24.7719 79.5851 24.7314 79.5447 24.7314V24.9739H79.7871Z" fill="black"/>
<path d="M69.2415 24.9736C69.2415 25.0948 69.3223 25.1757 69.4031 25.2161C69.4435 25.2161 69.4839 25.2161 69.4839 25.2161V24.9736H69.2415Z" fill="black"/>
<path d="M69.2415 29.9836C69.2415 30.1049 69.3223 30.1857 69.4031 30.2261C69.4435 30.2261 69.4839 30.2261 69.4839 30.2261V29.7412C69.4435 29.7412 69.4031 29.7412 69.4031 29.7412C69.3223 29.7816 69.2415 29.9028 69.2415 29.9836Z" fill="black"/>
<path d="M66.7366 27.4788C66.7366 27.6 66.8578 27.7212 66.979 27.7212C67.1002 27.7212 67.2214 27.6 67.2214 27.4788C67.2214 27.3575 67.1002 27.2363 66.979 27.2363C66.8578 27.2363 66.7366 27.3575 66.7366 27.4788Z" fill="black"/>
<path d="M79.262 24.9736C79.262 25.0948 79.3832 25.2161 79.5044 25.2161V24.9736H79.262Z" fill="black"/>
<path d="M79.262 29.9836C79.262 30.1049 79.3832 30.2261 79.5044 30.2261V29.7412C79.3832 29.7412 79.262 29.8624 79.262 29.9836Z" fill="black"/>
<path d="M74.5347 25.2161C74.6559 25.2161 74.7771 25.0948 74.7771 24.9736H74.2923C74.2519 25.0948 74.3731 25.2161 74.5347 25.2161Z" fill="black"/>
<path d="M74.252 29.9836C74.252 30.1049 74.3732 30.2261 74.4944 30.2261C74.6156 30.2261 74.7368 30.1049 74.7368 29.9836C74.7368 29.8624 74.6156 29.7412 74.4944 29.7412C74.3732 29.7412 74.252 29.8624 74.252 29.9836Z" fill="black"/>
<path d="M76.7568 27.4788C76.7568 27.6 76.878 27.7212 76.9993 27.7212C77.1205 27.7212 77.2417 27.6 77.2417 27.4788C77.2417 27.3575 77.1205 27.2363 76.9993 27.2363C76.878 27.2363 76.7568 27.3575 76.7568 27.4788Z" fill="black"/>
<path d="M71.7468 27.4788C71.7468 27.6 71.868 27.7212 71.9893 27.7212C72.1105 27.7212 72.2317 27.6 72.2317 27.4788C72.2317 27.3575 72.1105 27.2363 71.9893 27.2363C71.868 27.2363 71.7468 27.3575 71.7468 27.4788Z" fill="black"/>
<path d="M69.4839 25.2161C69.6051 25.2161 69.7263 25.0948 69.7263 24.9736H69.4839V25.2161Z" fill="black"/>
<path d="M69.7668 29.9836C69.7668 29.8624 69.6456 29.7412 69.5244 29.7412V30.2261C69.6456 30.2261 69.7668 30.1453 69.7668 29.9836Z" fill="black"/>
<path d="M79.5447 25.2161C79.6659 25.2161 79.7871 25.0948 79.7871 24.9736H79.5447V25.2161Z" fill="black"/>
<path d="M79.7871 29.9836C79.7871 29.8624 79.6659 29.7412 79.5447 29.7412V30.2261C79.6659 30.2261 79.7871 30.1453 79.7871 29.9836Z" fill="black"/>
<path d="M81.363 21.1355C81.363 21.2567 81.4843 21.3779 81.6055 21.3779C81.7267 21.3779 81.8479 21.2567 81.8479 21.1355C81.8479 21.0143 81.7267 20.8931 81.6055 20.8931C81.4843 20.8931 81.363 21.0143 81.363 21.1355Z" fill="black"/>
<path d="M83.8679 23.6404H84.1104V23.3979C84.0699 23.3979 84.0295 23.3979 84.0295 23.4384C83.9487 23.4788 83.8679 23.5596 83.8679 23.6404Z" fill="black"/>
<path d="M91.3835 21.1355C91.3835 21.2567 91.5048 21.3779 91.626 21.3779C91.7472 21.3779 91.8684 21.2567 91.8684 21.1355C91.8684 21.0143 91.7472 20.8931 91.626 20.8931C91.5048 20.8931 91.3835 21.0143 91.3835 21.1355Z" fill="black"/>
<path d="M86.373 21.1355C86.373 21.2567 86.4943 21.3779 86.6155 21.3779C86.7367 21.3779 86.8579 21.2567 86.8579 21.1355C86.8579 21.0143 86.7367 20.8931 86.6155 20.8931C86.4943 20.8931 86.373 21.0143 86.373 21.1355Z" fill="black"/>
<path d="M93.9688 23.6394V23.4385C93.9286 23.4787 93.8884 23.559 93.8884 23.6394H93.9688Z" fill="black"/>
<path d="M88.8782 23.6404H89.363C89.363 23.5192 89.2418 23.3979 89.1206 23.3979C88.9994 23.3979 88.8782 23.5192 88.8782 23.6404Z" fill="black"/>
<path d="M84.353 23.6404C84.353 23.5192 84.2318 23.3979 84.1106 23.3979V23.6404H84.353Z" fill="black"/>
<path d="M83.8679 23.6405C83.8679 23.6809 83.8679 23.7213 83.8679 23.7213C83.9083 23.7617 83.9487 23.8425 83.9891 23.8425C84.0295 23.8425 84.0699 23.8425 84.0699 23.8425V23.6001H83.8679V23.6405Z" fill="black"/>
<path d="M83.8679 28.6912C83.8679 28.8124 83.9487 28.8932 84.0295 28.9336C84.0699 28.9336 84.1104 28.9336 84.1104 28.9336V28.4487C84.0699 28.4487 84.0295 28.4487 84.0295 28.4487C83.9487 28.4891 83.8679 28.5699 83.8679 28.6912Z" fill="black"/>
<path d="M81.363 26.1457C81.363 26.267 81.4843 26.3882 81.6055 26.3882C81.7267 26.3882 81.8479 26.267 81.8479 26.1457C81.8479 26.0245 81.7267 25.9033 81.6055 25.9033C81.4843 25.9033 81.363 26.0245 81.363 26.1457Z" fill="black"/>
<path d="M93.9288 23.7612C93.9288 23.8013 93.969 23.8415 94.0092 23.8415V23.6406H93.9288C93.8886 23.6808 93.8886 23.721 93.9288 23.7612Z" fill="black"/>
<path d="M88.9185 23.762C88.9589 23.8428 89.0397 23.9236 89.1609 23.9236C89.2821 23.9236 89.3629 23.8428 89.4033 23.762C89.4033 23.7216 89.4033 23.6812 89.4033 23.6812H88.9185C88.8781 23.6812 88.8781 23.7216 88.9185 23.762Z" fill="black"/>
<path d="M88.8782 28.6912C88.8782 28.8124 88.9994 28.9336 89.1206 28.9336C89.2418 28.9336 89.363 28.8124 89.363 28.6912C89.363 28.57 89.2418 28.4487 89.1206 28.4487C88.9994 28.4083 88.8782 28.5296 88.8782 28.6912Z" fill="black"/>
<path d="M91.3835 26.1457C91.3835 26.267 91.5048 26.3882 91.626 26.3882C91.7472 26.3882 91.8684 26.267 91.8684 26.1457C91.8684 26.0245 91.7472 25.9033 91.626 25.9033C91.5048 25.9033 91.3835 26.0245 91.3835 26.1457Z" fill="black"/>
<path d="M86.373 26.1457C86.373 26.267 86.4943 26.3882 86.6155 26.3882C86.7367 26.3882 86.8579 26.267 86.8579 26.1457C86.8579 26.0245 86.7367 25.9033 86.6155 25.9033C86.4943 25.9033 86.373 26.0245 86.373 26.1457Z" fill="black"/>
<path d="M84.1106 23.9236C84.2318 23.9236 84.3126 23.8428 84.353 23.762C84.353 23.7216 84.353 23.6812 84.353 23.6812H84.1106V23.9236Z" fill="black"/>
<path d="M84.353 28.6912C84.353 28.5699 84.2318 28.4487 84.1106 28.4487V28.9336C84.2722 28.9336 84.353 28.8124 84.353 28.6912Z" fill="black"/>
<path d="M45.4434 19.9636C45.4434 20.0848 45.5646 20.206 45.6858 20.206V19.7212C45.5646 19.7212 45.4434 19.802 45.4434 19.9636Z" fill="black"/>
<path d="M40.4329 19.9636C40.4329 20.0848 40.5541 20.206 40.6753 20.206C40.7965 20.206 40.9177 20.0848 40.9177 19.9636C40.9177 19.8424 40.7965 19.7212 40.6753 19.7212C40.5137 19.7212 40.4329 19.802 40.4329 19.9636Z" fill="black"/>
<path d="M42.938 22.469C42.938 22.5902 43.0592 22.7114 43.1804 22.7114C43.3016 22.7114 43.4228 22.5902 43.4228 22.469C43.4228 22.3478 43.3016 22.2266 43.1804 22.2266C43.0188 22.2266 42.938 22.3074 42.938 22.469Z" fill="black"/>
<path d="M45.4434 24.9739H45.6858V24.7314C45.605 24.7314 45.5646 24.7719 45.5242 24.8123C45.4434 24.8527 45.4434 24.8931 45.4434 24.9739Z" fill="black"/>
<path d="M40.4329 24.9739H40.9177C40.9177 24.8931 40.8773 24.8527 40.8369 24.8123C40.7965 24.7719 40.7157 24.7314 40.6753 24.7314C40.5945 24.7314 40.5541 24.7719 40.5137 24.8123C40.4329 24.8527 40.4329 24.8931 40.4329 24.9739Z" fill="black"/>
<path d="M45.928 19.9636C45.928 19.8424 45.8068 19.7212 45.6855 19.7212V20.206C45.8068 20.206 45.928 20.0848 45.928 19.9636Z" fill="black"/>
<path d="M45.928 24.9739C45.928 24.8931 45.8876 24.8527 45.8472 24.8123C45.8068 24.7719 45.726 24.7314 45.6855 24.7314V24.9739H45.928Z" fill="black"/>
<path d="M45.4434 24.9736C45.4434 25.0948 45.5646 25.2161 45.6858 25.2161V24.9736H45.4434Z" fill="black"/>
<path d="M45.4434 29.9836C45.4434 30.1049 45.5646 30.2261 45.6858 30.2261V29.7412C45.5646 29.7412 45.4434 29.8624 45.4434 29.9836Z" fill="black"/>
<path d="M40.6753 25.2161C40.7965 25.2161 40.9177 25.0948 40.9177 24.9736H40.4329C40.4329 25.0948 40.5137 25.2161 40.6753 25.2161Z" fill="black"/>
<path d="M40.4329 29.9836C40.4329 30.1049 40.5541 30.2261 40.6753 30.2261C40.7965 30.2261 40.9177 30.1049 40.9177 29.9836C40.9177 29.8624 40.7965 29.7412 40.6753 29.7412C40.5137 29.7412 40.4329 29.8624 40.4329 29.9836Z" fill="black"/>
<path d="M42.938 27.4788C42.938 27.6 43.0592 27.7212 43.1804 27.7212C43.3016 27.7212 43.4228 27.6 43.4228 27.4788C43.4228 27.3575 43.3016 27.2363 43.1804 27.2363C43.0188 27.2363 42.938 27.3575 42.938 27.4788Z" fill="black"/>
<path d="M45.6855 25.2161C45.8068 25.2161 45.928 25.0948 45.928 24.9736H45.6855V25.2161Z" fill="black"/>
<path d="M45.928 29.9836C45.928 29.8624 45.8068 29.7412 45.6855 29.7412V30.2261C45.8068 30.2261 45.928 30.1453 45.928 29.9836Z" fill="black"/>
<path d="M47.5039 21.1355C47.5039 21.2567 47.6251 21.3779 47.7463 21.3779C47.8675 21.3779 47.9888 21.2567 47.9888 21.1355C47.9888 21.0143 47.8675 20.8931 47.7463 20.8931C47.6251 20.8931 47.5039 21.0143 47.5039 21.1355Z" fill="black"/>
<path d="M50.0088 23.6404H50.2512V23.3979C50.2108 23.3979 50.1704 23.3979 50.1704 23.4384C50.0896 23.4788 50.0088 23.5596 50.0088 23.6404Z" fill="black"/>
<path d="M57.5242 21.1355C57.5242 21.2567 57.6454 21.3779 57.7666 21.3779C57.8878 21.3779 58.009 21.2567 58.009 21.1355C58.009 21.0143 57.8878 20.8931 57.7666 20.8931C57.6454 20.8931 57.5242 21.0143 57.5242 21.1355Z" fill="black"/>
<path d="M52.5139 21.1355C52.5139 21.2567 52.6351 21.3779 52.7563 21.3779C52.8776 21.3779 52.9988 21.2567 52.9988 21.1355C52.9988 21.0143 52.8776 20.8931 52.7563 20.8931C52.6351 20.8931 52.5139 21.0143 52.5139 21.1355Z" fill="black"/>
<path d="M60.1499 23.6394V23.4385C60.1098 23.4787 60.0696 23.559 60.0696 23.6394H60.1499Z" fill="black"/>
<path d="M55.0193 23.6404H55.5041C55.5041 23.5192 55.3829 23.3979 55.2617 23.3979C55.1405 23.3979 55.0193 23.5192 55.0193 23.6404Z" fill="black"/>
<path d="M50.5342 23.6404C50.5342 23.5192 50.413 23.3979 50.2917 23.3979V23.6404H50.5342Z" fill="black"/>
<path d="M50.0088 23.6405C50.0088 23.6809 50.0088 23.7213 50.0088 23.7213C50.0492 23.7617 50.0896 23.8425 50.13 23.8425C50.1704 23.8425 50.2108 23.8425 50.2108 23.8425V23.6001H50.0088V23.6405Z" fill="black"/>
<path d="M50.0088 28.6912C50.0088 28.8124 50.0896 28.8932 50.1704 28.9336C50.2108 28.9336 50.2512 28.9336 50.2512 28.9336V28.4487C50.2108 28.4487 50.1704 28.4487 50.1704 28.4487C50.0896 28.4891 50.0088 28.5699 50.0088 28.6912Z" fill="black"/>
<path d="M47.5039 26.1457C47.5039 26.267 47.6251 26.3882 47.7463 26.3882C47.8675 26.3882 47.9888 26.267 47.9888 26.1457C47.9888 26.0245 47.8675 25.9033 47.7463 25.9033C47.6251 25.9033 47.5039 26.0245 47.5039 26.1457Z" fill="black"/>
<path d="M60.0696 23.7612C60.0696 23.8013 60.1098 23.8415 60.15 23.8415V23.6406H60.0696C60.0294 23.6808 60.0696 23.721 60.0696 23.7612Z" fill="black"/>
<path d="M55.0597 23.762C55.1001 23.8428 55.1809 23.9236 55.3021 23.9236C55.4233 23.9236 55.5041 23.8428 55.5445 23.762C55.5445 23.7216 55.5445 23.6812 55.5445 23.6812H55.0193C55.0193 23.6812 55.0597 23.7216 55.0597 23.762Z" fill="black"/>
<path d="M55.0193 28.6912C55.0193 28.8124 55.1405 28.9336 55.2617 28.9336C55.3829 28.9336 55.5041 28.8124 55.5041 28.6912C55.5041 28.57 55.3829 28.4487 55.2617 28.4487C55.1405 28.4083 55.0193 28.5296 55.0193 28.6912Z" fill="black"/>
<path d="M57.5242 26.1457C57.5242 26.267 57.6454 26.3882 57.7666 26.3882C57.8878 26.3882 58.009 26.267 58.009 26.1457C58.009 26.0245 57.8878 25.9033 57.7666 25.9033C57.6454 25.9033 57.5242 26.0245 57.5242 26.1457Z" fill="black"/>
<path d="M52.5139 26.1457C52.5139 26.267 52.6351 26.3882 52.7563 26.3882C52.8776 26.3882 52.9988 26.267 52.9988 26.1457C52.9988 26.0245 52.8776 25.9033 52.7563 25.9033C52.6351 25.9033 52.5139 26.0245 52.5139 26.1457Z" fill="black"/>
<path d="M50.2917 23.9236C50.413 23.9236 50.4938 23.8428 50.5342 23.762C50.5342 23.7216 50.5342 23.6812 50.5342 23.6812H50.2917V23.9236Z" fill="black"/>
<path d="M50.5342 28.6912C50.5342 28.5699 50.413 28.4487 50.2917 28.4487V28.9336C50.413 28.9336 50.5342 28.8124 50.5342 28.6912Z" fill="black"/>
<path d="M34.6953 30.3477V63.8431" stroke="black" stroke-width="1.5" stroke-miterlimit="10"/>
<path d="M123.101 70.9542L113.484 62.4692L115.303 74.7927L117.848 72.6916L120.515 76.9341L122.05 76.0856L119.787 71.6411L123.101 70.9542Z" fill="black"/>
<path d="M39.3823 69.7017H108.434" stroke="black" stroke-width="1.5" stroke-miterlimit="10"/>
<path d="M130 10V85.5" stroke="black" stroke-width="1.5"/>
<path d="M35 67L35 85" stroke="black" stroke-width="1.5"/>
<path d="M136 16H149" stroke="black" stroke-width="1.5" stroke-linecap="round"/>
<path d="M136 66H149" stroke="black" stroke-width="1.5" stroke-linecap="round"/>
<path d="M13 74H26" stroke="black" stroke-width="1.5" stroke-linecap="round"/>
<path d="M136 69H149" stroke="black" stroke-width="1.5" stroke-linecap="round"/>
<rect x="47.75" y="38.75" width="39.5" height="24.5" rx="2.25" stroke="black" stroke-width="1.5" stroke-linejoin="round"/>
<path d="M33.8995 66.9542C50.4125 66.9542 63.7989 53.5677 63.7989 37.0547C63.7989 20.5417 50.4125 7.15527 33.8995 7.15527C17.3864 7.15527 4 20.5417 4 37.0547C4 53.5677 17.3864 66.9542 33.8995 66.9542Z" fill="#D18C03"/>
<path d="M40.8373 52.611C39.9484 53.2575 39.302 53.8232 38.5343 54.308C34.4534 56.8131 30.2109 56.6111 26.0088 54.6717C20.8774 52.3282 17.9279 47.0756 18.2511 41.2169C18.5744 35.6007 22.0896 30.7521 27.3826 29.0147C32.6756 27.2773 37.6454 28.0046 41.9687 31.641C44.9182 34.1057 46.4536 37.3785 46.5748 41.2169C46.696 45.621 46.6152 50.0655 46.6152 54.5101C46.6152 55.1565 46.3728 55.399 45.7263 55.399C44.393 55.3585 43.0192 55.3585 41.6858 55.399C41.0394 55.399 40.8373 55.1161 40.8373 54.5101C40.8777 53.9444 40.8373 53.3383 40.8373 52.611ZM40.9182 42.1058C40.7969 41.2977 40.7565 40.53 40.5545 39.7219C39.1403 33.6612 31.9887 31.1157 27.221 34.9946C24.4734 37.2169 23.3421 41.3381 24.5139 45.1362C25.8876 49.7019 30.5746 52.1262 35.0999 50.6312C38.6151 49.4595 40.8373 46.1463 40.9182 42.1058Z" fill="white"/>
<path d="M32.4737 20.2871C36.6354 20.2871 40.8374 20.2871 44.9991 20.2871C46.0092 20.2871 46.0496 20.3275 46.0901 21.3376C46.0901 22.2669 46.0901 23.1558 46.0901 24.0851C46.0901 24.6104 45.888 24.8528 45.3628 24.8528C45.1607 24.8528 44.9991 24.8528 44.7971 24.8528C36.5545 24.8528 28.2716 24.8528 20.029 24.8528C18.8169 24.8528 18.8169 24.8528 18.8169 23.6811C18.8169 22.9538 18.8169 22.2265 18.8169 21.4992C18.8169 20.3679 18.8169 20.3275 19.9482 20.3275C24.1503 20.2871 28.312 20.2871 32.4737 20.2871Z" fill="white"/>
<path d="M38.4936 52.611C37.6047 53.2575 36.9582 53.8232 36.1905 54.308C32.1097 56.8131 27.8672 56.6111 23.6651 54.6717C18.5337 52.3282 15.5841 47.0756 15.9074 41.2169C16.2306 35.6007 19.7458 30.7521 25.0388 29.0147C30.3318 27.2773 35.3016 28.0046 39.6249 31.641C42.5745 34.1057 44.1098 37.3785 44.2311 41.2169C44.3523 45.621 44.2715 50.0655 44.2715 54.5101C44.2715 55.1565 44.029 55.399 43.3826 55.399C42.0492 55.3585 40.6754 55.3585 39.3421 55.399C38.6956 55.399 38.4936 55.1161 38.4936 54.5101C38.4936 53.9444 38.4936 53.3383 38.4936 52.611ZM38.5744 42.1058C38.4532 41.2977 38.4128 40.53 38.2108 39.7219C36.7966 33.6612 29.645 31.1157 24.8772 34.9946C22.1297 37.2169 20.9984 41.3381 22.1701 45.1362C23.5439 49.7019 28.2308 52.1262 32.7561 50.6312C36.2713 49.4595 38.4936 46.1463 38.5744 42.1058Z" stroke="black" stroke-width="1.5" stroke-miterlimit="10"/>
<path d="M30.1299 20.2871C34.2916 20.2871 38.4937 20.2871 42.6554 20.2871C43.6655 20.2871 43.7059 20.3275 43.7463 21.3376C43.7463 22.2669 43.7463 23.1558 43.7463 24.0851C43.7463 24.6104 43.5443 24.8528 43.019 24.8528C42.817 24.8528 42.6554 24.8528 42.4534 24.8528C34.2108 24.8528 25.9278 24.8528 17.6853 24.8528C16.4731 24.8528 16.4731 24.8528 16.4731 23.6811C16.4731 22.9538 16.4731 22.2265 16.4731 21.4992C16.4731 20.3679 16.4731 20.3275 17.6045 20.3275C21.7662 20.2871 25.9682 20.2871 30.1299 20.2871Z" stroke="black" stroke-width="1.5" stroke-miterlimit="10"/>
<path d="M31.6248 66.9542C48.1378 66.9542 61.5243 53.5677 61.5243 37.0547C61.5243 20.5417 48.1378 7.15527 31.6248 7.15527C15.1118 7.15527 1.72534 20.5417 1.72534 37.0547C1.72534 53.5677 15.1118 66.9542 31.6248 66.9542Z" stroke="black" stroke-width="1.5" stroke-miterlimit="10"/>
</svg>
