<svg width="168" height="160" viewBox="0 0 168 160" fill="none" xmlns="http://www.w3.org/2000/svg">
<path fill-rule="evenodd" clip-rule="evenodd" d="M136.919 125.857C137.251 126.372 137.502 126.569 137.705 126.586L143.943 118.958C143.701 118.506 143.31 118.111 142.952 117.71C141.431 116.091 139.931 114.585 138.364 113.032C136.731 111.434 135.077 109.724 133.442 108.131C132.846 107.434 132.14 106.758 131.439 106.089L131.485 106.021C132.239 106.34 133.014 106.771 134.034 107.271C134.475 108.23 135.484 108.693 136.533 109.173C136.874 109.329 137.22 109.488 137.554 109.666C137.997 109.871 138.486 110.01 138.96 109.456C139.343 109.037 139.859 108.706 140.421 108.312C140.686 108.492 140.997 108.608 141.596 109.014C141.289 108.61 141.155 108.52 141.068 108.363C142.067 108.751 142.761 108.445 143.237 107.604C143.964 106.25 144.691 104.897 145.571 103.746C146.725 102.196 145.843 101.207 144.829 100.128C143.595 98.8017 142.405 97.4082 141.327 95.9948C141.041 95.7031 141.273 95.0752 141.296 94.6127C141.607 94.7268 141.939 94.9532 142.448 95.2043C142.514 95.1386 142.593 95.0877 142.68 95.0548C142.888 94.9689 143.071 94.8308 143.211 94.6538C144.047 93.5694 144.882 92.4861 145.585 91.3102C145.614 91.262 145.644 91.2147 145.673 91.1665C146.444 89.9 147.263 88.5564 145.56 87.2089C145.526 87.1815 145.527 87.1034 145.532 86.9989C145.54 86.8978 145.536 86.7961 145.521 86.6959L146.254 86.9031C146.348 86.4807 146.351 86.1907 146.42 85.946C147.029 86.0771 147.646 86.1722 148.266 86.2307C148.136 85.8511 148.027 85.5819 147.898 85.2012C148.918 85.7011 149.706 85.5573 150.333 84.6229C150.768 84.0083 151.235 83.4172 151.732 82.8522C152.363 82.2121 152.599 81.0101 152.092 80.471C150.483 78.6952 148.875 76.9194 147.107 75.2308C145.122 73.2956 143.025 71.3823 140.993 69.5124C139.447 68.073 137.791 66.6523 136.155 65.3442C133.836 63.4743 131.488 61.7798 129.122 59.9743C125.676 57.3314 122.157 54.6496 118.662 52.0762C116.162 50.1811 113.595 48.5298 111.005 46.7671C108.349 44.9592 105.739 43.085 102.947 41.4775C99.7776 39.7086 96.8148 37.4974 93.3737 36.1275C91.4214 35.2855 89.8101 33.7997 87.9256 32.712C85.3329 31.2394 82.7175 29.9443 80.0793 28.5378C78.0845 27.4719 76.0689 26.2945 73.9625 25.2494C71.2129 23.8638 68.4634 22.4801 65.7293 21.2017C64.2001 20.4518 62.5339 19.9015 60.9131 19.285C59.3584 18.7138 57.8263 18.2539 56.3386 17.727C53.6522 16.6768 51.0388 15.0927 47.9245 15.3976C46.8995 17.6177 45.8064 19.7927 45.0268 22.0805C44.5921 23.1466 44.6675 24.4617 44.879 25.5782C44.9535 25.9683 45.4428 26.3089 45.9186 26.6402C46.1166 26.7719 46.3078 26.9136 46.4913 27.0649C46.5275 27.1383 46.5516 27.2172 46.5627 27.2983C46.5755 27.3683 46.5859 27.424 46.6178 27.4449C46.4394 27.553 46.2537 27.6486 46.062 27.7309C45.6995 27.8984 45.3616 28.0527 45.2263 28.3465C44.7256 29.3672 44.2456 30.4995 44.0113 31.7014C43.4923 34.4597 43.449 34.5276 40.8513 33.3433C40.7852 33.2979 40.6076 33.2735 40.5406 33.2292C39.1004 32.6378 37.5662 32.1762 36.1474 31.4046C34.5294 30.498 32.8783 30.6393 31.3434 30.4695C30.9993 31.4013 30.7906 32.1356 30.5837 32.8698C30.354 33.4907 30.2132 34.2702 30.0488 34.9375C29.8784 35.4903 29.6702 36.0307 29.4256 36.555C29.4129 36.6496 29.3113 36.7118 29.2234 36.7659C29.1354 36.82 29.0783 36.8556 29.0883 36.9076C29.0471 38.2411 28.9954 39.4699 29.1833 40.765C28.6957 40.8463 28.2041 40.9013 27.7107 40.9296C27.1947 43.3998 26.6135 45.8235 26.055 48.0698C24.7421 47.8574 23.6964 47.825 22.6281 47.6814C21.5805 47.6492 20.5783 47.5509 19.2861 47.45C19.5416 48.2069 19.7186 48.8138 19.8914 49.4173C19.1517 49.7893 18.4913 51.1871 18.777 52.0632C19.0627 52.9394 19.2066 53.7171 18.5964 54.4697C18.3663 54.8067 18.0531 55.2667 18.0267 55.7352C17.9726 56.6696 18.0302 57.5851 17.9762 58.5195C17.8486 59.9907 17.6784 61.5269 17.6178 63.0425C17.5676 63.6877 17.8055 64.3357 17.9114 64.8949C18.1666 65.0761 18.4124 65.2702 18.648 65.4763C19.0746 65.8357 19.5138 66.2054 19.9871 66.4051C21.1196 66.8831 21.5115 67.7341 21.5454 68.8262C21.4943 69.4724 21.0872 70.0708 21.1474 70.6943C21.1804 71.7874 21.3712 72.7925 21.5619 73.7975C21.7101 74.5787 21.3955 74.7538 20.7051 74.7704C19.7864 74.8244 18.8763 74.8872 18.1395 74.9691C17.9948 76.0378 17.9409 76.9741 17.8225 77.8611C17.7062 78.8409 17.9762 79.8272 18.5751 80.6106C18.5505 80.615 18.5181 80.6183 18.4811 80.623C18.3476 80.6364 18.1534 80.6579 18.082 80.7623C17.4283 81.581 18.2489 84.085 19.2461 84.4716C19.8707 84.7144 20.5086 84.9211 21.1569 85.0907C22.0014 85.2771 22.8921 85.3963 23.7366 85.5827C24.0927 85.6306 24.5603 85.6577 25.0949 85.729C25.0703 85.9066 25.1997 86.2873 25.2638 86.6216C26.064 86.8751 26.6608 87.2809 27.2587 87.6876L28.1882 88.3217C28.8385 88.8098 29.606 88.9962 30.3792 89.1821C31.2116 89.3832 32.0508 89.5846 32.7608 90.1687C33.0012 90.3986 33.3897 90.4134 33.8388 90.4288C34.0475 90.4367 34.2687 90.4443 34.4991 90.4769C34.4485 90.5388 34.4301 90.7216 34.3847 90.7878C35.181 91.3304 35.9773 91.8731 36.8608 92.2876C39.2779 93.4467 41.5835 94.6267 43.9345 95.7406C44.5777 96.081 45.3561 96.2221 46.0655 96.608C47.0856 97.1078 48.0357 97.8516 49.055 98.3525C49.499 98.5581 50.144 98.6077 50.5663 98.7009C50.6201 98.7988 50.6684 98.8997 50.711 99.003C50.7961 99.2005 50.8637 99.3573 50.9837 99.3731C52.4025 100.145 53.863 100.853 55.2625 101.509C56.0182 101.827 56.8626 102.014 57.5266 102.466C59.0539 103.505 60.4234 104.632 61.9517 105.671C62.0839 105.762 62.3538 105.65 62.7962 105.858C62.9746 105.881 63.0861 105.86 63.2184 105.951C63.3376 106.037 63.4441 106.139 63.5346 106.255C63.6284 106.387 63.7497 106.497 63.8901 106.577C64.0306 106.657 64.1869 106.705 64.348 106.719C65.3579 106.855 66.4194 107.809 67.2979 108.597L67.4471 108.732C68.16 109.404 69.0127 109.837 69.8768 110.269C70.8042 110.737 71.7354 111.204 72.5163 111.988C72.9603 112.502 73.5912 112.825 74.2415 113.159C74.7854 113.439 75.3423 113.725 75.8156 114.136C76.8036 115.067 77.9717 115.777 79.1563 116.497C79.7526 116.859 80.3509 117.222 80.9282 117.616C82.3016 118.453 83.6958 119.403 85.0238 120.307C85.4739 120.612 85.9557 120.878 86.4376 121.144C87.3004 121.621 88.1632 122.097 88.858 122.819C89.2146 123.219 89.6838 123.494 90.1478 123.774C90.5501 123.992 90.9264 124.255 91.2694 124.558C92.3498 125.682 93.6229 125.958 95.0895 126.089C95.854 126.222 96.5808 126.518 97.2204 126.957C97.4499 127.142 97.6405 127.371 97.7815 127.631C97.9219 127.891 98.1126 128.12 98.3425 128.305C100.002 129.435 101.753 130.431 103.503 131.428C104.234 131.925 105.1 132.224 105.787 132.497C106.006 132.312 106.227 132.148 106.433 131.994C106.881 131.661 107.267 131.377 107.363 131.041C107.611 129.919 108.056 130.072 108.708 130.297C108.794 130.327 108.882 130.358 108.974 130.387C109.218 130.456 109.577 130.214 109.958 130.084C111.154 130.897 112.369 131.823 113.676 132.615C114.514 133.087 115.01 132.939 114.733 131.778C115.811 131.922 115.892 131.325 115.96 130.763C115.976 130.589 116.011 130.418 116.063 130.252C116.485 130.345 116.796 130.459 117.152 130.507C117.879 129.154 118.66 129.005 119.765 129.951C120.051 130.243 120.36 130.648 120.647 130.94C120.845 131.076 121.177 131.302 121.335 131.214C121.587 131.007 121.814 130.769 122.01 130.508C122.191 130.241 122.256 129.993 122.396 129.798C122.453 129.844 122.503 129.897 122.544 129.957C122.604 130.062 122.701 130.142 122.817 130.18C123.027 130.19 123.237 130.169 123.441 130.118C123.236 129.577 123.508 129.429 123.785 129.27C123.981 129.163 124.181 129.053 124.229 128.805C125.023 129.638 125.648 129.577 126.19 128.779C126.224 128.726 126.255 128.671 126.283 128.615C126.354 128.479 126.431 128.329 126.508 128.314C127.378 128.15 127.559 127.561 127.744 126.956C127.811 126.706 127.904 126.464 128.022 126.233C128.11 126.3 128.191 126.375 128.265 126.456C128.384 126.603 128.535 126.72 128.707 126.797C129.129 126.89 129.841 126.986 130.089 126.765C130.556 126.289 130.936 125.707 131.365 125.053C131.514 124.825 131.663 124.596 131.829 124.352L136.344 127.425C136.573 126.803 136.712 126.313 136.916 125.869" fill="#F6E9E1"/>
<path d="M84.1029 112.762C82.6119 113.874 81.4286 114.868 80.1269 115.649C73.0979 119.933 65.8086 119.602 58.5902 116.312C49.7863 112.289 44.6979 103.224 45.2659 93.1423C45.8103 83.4863 51.8689 75.1556 60.9332 72.15C70.0449 69.1443 78.5886 70.4223 86.0435 76.694C91.1082 80.954 93.7589 86.5866 93.9482 93.1659C94.1612 100.763 93.9955 108.384 94.0429 116.004C94.0429 117.117 93.6169 117.543 92.5045 117.519C90.1852 117.472 87.8422 117.472 85.5229 117.519C84.4342 117.543 84.0319 117.069 84.0792 116.028C84.1502 115.034 84.1029 114.016 84.1029 112.762ZM84.2449 94.6806C84.0555 93.3316 83.9372 91.9353 83.6296 90.61C81.1682 80.173 68.9326 75.8183 60.6966 82.445C55.9396 86.279 54.0463 93.3789 56.0342 99.9109C58.4246 107.768 66.4712 111.934 74.2576 109.354C80.2689 107.366 84.1029 101.662 84.2449 94.6806Z" fill="#213B3B"/>
<path d="M69.7133 57.1689C76.8843 57.1689 84.079 57.1689 91.25 57.1689C92.9777 57.1689 93.0723 57.2636 93.096 58.9676C93.096 60.5533 93.0723 62.1153 93.096 63.7009C93.096 64.5766 92.741 65.0263 91.818 65.0026C91.5103 64.9789 91.179 65.0026 90.8713 65.0026C76.6713 65.0026 62.4714 65.0026 48.2477 65.0026C46.1887 65.0026 46.1887 64.9789 46.165 62.9673C46.165 61.7129 46.165 60.4349 46.165 59.1806C46.165 57.1926 46.1887 57.1689 48.1294 57.1689C55.3477 57.1689 62.5424 57.1689 69.7133 57.1689Z" fill="#213B3B"/>
<path d="M82.162 113.591C80.671 114.703 79.4876 115.697 78.186 116.478C71.157 120.762 63.8677 120.43 56.6493 117.141C47.8453 113.117 42.757 104.053 43.325 93.9709C43.8693 84.3149 49.928 75.9842 58.9923 72.9786C68.104 69.9729 76.6476 71.2509 84.1026 77.5226C89.1673 81.7826 91.818 87.4152 92.0073 93.9946C92.2203 101.592 92.0546 109.212 92.102 116.833C92.102 117.945 91.676 118.371 90.5636 118.348C88.2443 118.3 85.9013 118.3 83.582 118.348C82.4933 118.371 82.091 117.898 82.1383 116.857C82.2093 115.839 82.162 114.845 82.162 113.591ZM82.304 95.5092C82.1146 94.1602 81.9963 92.7639 81.6886 91.4386C79.2273 81.0016 66.9916 76.6469 58.7557 83.2736C53.9987 87.1076 52.1053 94.2076 54.0933 100.74C56.4837 108.597 64.5303 112.762 72.3166 110.183C78.328 108.171 82.162 102.491 82.304 95.5092Z" stroke="black" stroke-width="1.5" stroke-miterlimit="10"/>
<path d="M67.7729 57.9736C74.9439 57.9736 82.1386 57.9736 89.3096 57.9736C91.0372 57.9736 91.1319 58.0683 91.1556 59.7723C91.1556 61.358 91.1319 62.92 91.1556 64.5056C91.1556 65.3813 90.8006 65.831 89.8776 65.8073C89.5699 65.7836 89.2386 65.8073 88.9309 65.8073C74.7309 65.8073 60.5309 65.8073 46.3073 65.8073C44.2483 65.8073 44.2483 65.7836 44.2246 63.772C44.2246 62.5176 44.2246 61.2396 44.2246 59.9853C44.2246 57.9973 44.2483 57.9736 46.1889 57.9736C53.4073 57.9736 60.6019 57.9736 67.7729 57.9736Z" stroke="black" stroke-width="1.5" stroke-miterlimit="10"/>
<path d="M76.6477 37.147L68.672 26L60.6963 37.147L49.999 28.4377V47.584H68.672H87.345V28.4377L76.6477 37.147Z" fill="#D18C03"/>
<path d="M75.2041 37.147L67.2284 26L59.2527 37.147L48.5554 28.4377V47.584H67.2284H85.9014V28.4377L75.2041 37.147Z" stroke="black" stroke-width="1.5" stroke-miterlimit="10" stroke-linecap="round" stroke-linejoin="round"/>
<path d="M45.2419 83.3914C31.113 88.9058 22.1196 96.7394 23.3976 103.65C25.1963 113.188 45.9993 117.282 69.8789 112.809C93.7585 108.336 111.674 96.9761 109.876 87.4384C108.716 81.2614 99.5569 77.3565 86.7532 76.5991" stroke="black" stroke-width="1.5" stroke-miterlimit="10" stroke-linecap="round" stroke-linejoin="round"/>
<path d="M102.61 81.9005C104.048 81.9005 105.213 80.735 105.213 79.2972C105.213 77.8594 104.048 76.6938 102.61 76.6938C101.172 76.6938 100.007 77.8594 100.007 79.2972C100.007 80.735 101.172 81.9005 102.61 81.9005Z" fill="#D18C03" stroke="black" stroke-width="1.5" stroke-miterlimit="10" stroke-linecap="round" stroke-linejoin="round"/>
<path d="M31.5865 113.543C33.0243 113.543 34.1898 112.377 34.1898 110.939C34.1898 109.501 33.0243 108.336 31.5865 108.336C30.1487 108.336 28.9832 109.501 28.9832 110.939C28.9832 112.377 30.1487 113.543 31.5865 113.543Z" fill="white" stroke="black" stroke-width="1.5" stroke-miterlimit="10" stroke-linecap="round" stroke-linejoin="round"/>
<path d="M139.282 27.4437L142.382 33.7154C142.5 33.9521 142.713 34.1177 142.974 34.1414L149.884 35.1354C150.523 35.2301 150.784 36.0347 150.334 36.4844L145.317 41.3597C145.127 41.5491 145.056 41.8094 145.08 42.0697L146.263 48.9567C146.382 49.5957 145.695 50.0927 145.127 49.7851L138.95 46.5427C138.714 46.4244 138.453 46.4244 138.217 46.5427L132.016 49.7851C131.424 50.0927 130.762 49.5957 130.88 48.9567L132.063 42.0697C132.111 41.8094 132.016 41.5491 131.827 41.3597L126.833 36.4844C126.36 36.0347 126.62 35.2301 127.283 35.1354L134.193 34.1414C134.454 34.0941 134.667 33.9521 134.785 33.7154L137.885 27.4437C138.146 26.8521 138.998 26.8521 139.282 27.4437Z" fill="white" stroke="black" stroke-width="1.5" stroke-miterlimit="10" stroke-linecap="round" stroke-linejoin="round"/>
<path d="M125.673 42.0459C125.673 42.0459 115.023 44.8622 111 58.1155" stroke="black" stroke-width="1.5" stroke-miterlimit="10" stroke-linecap="round" stroke-linejoin="round"/>
<path d="M124.727 48.5776C124.727 48.5776 115.757 54.9913 116.68 68.8126" stroke="black" stroke-width="1.5" stroke-miterlimit="10" stroke-linecap="round" stroke-linejoin="round"/>
<path d="M16.5422 51.0798L19.9629 54.0658C20.0829 54.1696 20.2595 54.2244 20.4215 54.1826L24.8279 53.0676C25.2485 52.9696 25.5923 53.3648 25.4264 53.7671L23.6196 57.9276C23.5558 58.0823 23.5757 58.2535 23.6612 58.3973L26.0782 62.2365C26.3074 62.6026 26.0103 63.0593 25.6098 63.0208L21.0861 62.6211C20.9278 62.6101 20.7529 62.6828 20.6491 62.8029L17.7432 66.2928C17.4662 66.613 16.9329 66.5016 16.8567 66.0719L15.8382 61.6511C15.7964 61.489 15.6891 61.3542 15.5344 61.2904L11.3228 59.6074C10.9206 59.4415 10.8827 58.919 11.2488 58.6898L15.1461 56.3511C15.29 56.2657 15.3848 56.1237 15.3867 55.9435L15.6809 51.4124C15.7194 51.0119 16.222 50.8029 16.5422 51.0798Z" fill="#D18C03" stroke="black" stroke-width="1.5" stroke-miterlimit="10" stroke-linecap="round" stroke-linejoin="round"/>
<path d="M12.8063 62.681C12.8063 62.681 7.13448 67.0394 8.0081 75.9804" stroke="black" stroke-width="1.5" stroke-miterlimit="10" stroke-linecap="round" stroke-linejoin="round"/>
<path d="M13.8651 66.8287C13.8651 66.8287 10.0891 72.9105 14.08 80.9651" stroke="black" stroke-width="1.5" stroke-miterlimit="10" stroke-linecap="round" stroke-linejoin="round"/>
<path d="M123.199 81.9997C125.612 84.4874 128.436 87.6327 129.305 91.0455C129.57 92.068 129.596 93.1952 128.836 93.9946C128.093 94.774 126.801 95.1858 125.727 95.0226C125.087 94.9317 124.428 94.574 124.211 93.9267C124.011 93.3429 124.249 92.7846 124.662 92.3866C126.628 90.4516 129.994 90.5395 132.308 91.8232C134.711 93.1637 136.49 95.5322 137.673 97.9633C138.286 99.2047 138.746 100.673 138.66 102.06C138.609 102.99 138.123 104.015 137.384 104.563C136.767 105.044 135.707 105.111 135.175 104.455C134.516 103.662 134.792 102.23 135.024 101.348C135.599 99.1394 137.704 97.5531 140.028 98.1415" stroke="black" stroke-width="1.5" stroke-miterlimit="10" stroke-linecap="round" stroke-linejoin="round"/>
</svg>
