<svg width="117" height="42" viewBox="0 0 117 42" fill="none" xmlns="http://www.w3.org/2000/svg">
<g clip-path="url(#clip0_201_534)">
<path d="M38.9881 36.0074C38.9881 35.6341 38.8664 35.3258 38.631 35.0905C38.3957 34.8551 38.0873 34.7415 37.7141 34.7415C37.4463 34.7415 37.1947 34.8064 36.9594 34.9282C36.7241 35.0499 36.5537 35.1716 36.4482 35.3014L36.2859 35.48L35.8071 35.0012C35.8071 35.0012 35.8558 34.9363 35.8882 34.8957C35.9207 34.8551 36.0018 34.774 36.1236 34.6685C36.2453 34.563 36.3751 34.4656 36.505 34.3763C36.6429 34.2871 36.8133 34.2141 37.0324 34.1491C37.2515 34.0842 37.4706 34.0518 37.706 34.0518C38.2821 34.0518 38.769 34.2384 39.1504 34.6198C39.5318 34.9931 39.7184 35.4637 39.7184 36.0155V39.2533H38.98V38.5636C38.98 38.5636 38.9475 38.6123 38.9151 38.6528C38.8826 38.6934 38.8177 38.7502 38.7203 38.8476C38.6148 38.9369 38.5093 39.018 38.3876 39.091C38.274 39.1641 38.1198 39.2209 37.925 39.2777C37.7303 39.3345 37.5355 39.3588 37.3327 39.3588C36.8296 39.3588 36.3995 39.2046 36.0505 38.9044C35.7016 38.6041 35.5312 38.2633 35.5312 37.8738C35.5312 37.4519 35.661 37.1029 35.9126 36.8432C36.1641 36.5836 36.5374 36.4132 37.0162 36.332L38.98 36.0074H38.9881ZM38.5255 38.1903C38.8339 37.8738 38.9881 37.4681 38.9881 36.965V36.6404L37.2353 36.965C36.6023 37.0867 36.2777 37.3869 36.2777 37.8657C36.2777 38.0929 36.3751 38.2796 36.5618 38.4337C36.7484 38.5798 37.0081 38.661 37.3408 38.661C37.8196 38.661 38.2172 38.5068 38.5255 38.1903Z" fill="white"/>
<path d="M42.3233 34.8227C42.8264 34.3033 43.4188 34.0518 44.1085 34.0518C44.5062 34.0518 44.8794 34.1329 45.2203 34.3114C45.5611 34.4818 45.8126 34.6523 45.9587 34.8227L46.1778 35.0661L45.6422 35.5936C45.6422 35.5936 45.6098 35.5449 45.5773 35.5043C45.5448 35.4637 45.488 35.3988 45.3907 35.3014C45.2933 35.2041 45.1959 35.1148 45.0823 35.0418C44.9687 34.9687 44.8307 34.9038 44.6522 34.8389C44.4737 34.774 44.2952 34.7496 44.1004 34.7496C43.6135 34.7496 43.1916 34.9363 42.8345 35.3177C42.4775 35.6991 42.2989 36.1616 42.2989 36.7134C42.2989 37.2652 42.4775 37.7278 42.8345 38.1091C43.1916 38.4905 43.6135 38.6772 44.1004 38.6772C44.4007 38.6772 44.6766 38.6041 44.9443 38.4662C45.2121 38.3282 45.4069 38.1822 45.5205 38.0442L45.6909 37.8332L46.2184 38.312C46.2184 38.312 46.1697 38.3769 46.121 38.4256C46.0804 38.4743 45.9912 38.5636 45.8532 38.6772C45.7153 38.7989 45.5692 38.9044 45.415 38.9937C45.2608 39.0829 45.0661 39.1722 44.8307 39.2452C44.5873 39.3264 44.3439 39.3588 44.1004 39.3588C43.4107 39.3588 42.8102 39.0992 42.307 38.5879C41.8039 38.0686 41.5605 37.4437 41.5605 36.7134C41.5605 35.9831 41.812 35.3501 42.3152 34.8389L42.3233 34.8227Z" fill="white"/>
<path d="M50.998 36.0074C50.998 35.6341 50.8763 35.3258 50.6409 35.0905C50.4056 34.8551 50.0972 34.7415 49.724 34.7415C49.4562 34.7415 49.2046 34.8064 48.9693 34.9282C48.7339 35.0499 48.5635 35.1716 48.458 35.3014L48.2958 35.48L47.817 35.0012C47.817 35.0012 47.8657 34.9363 47.8981 34.8957C47.9306 34.8551 48.0117 34.774 48.1335 34.6685C48.2552 34.563 48.385 34.4656 48.5149 34.3763C48.6528 34.2871 48.8232 34.2141 49.0423 34.1491C49.2614 34.0842 49.4805 34.0518 49.7158 34.0518C50.292 34.0518 50.7789 34.2384 51.1603 34.6198C51.5417 34.9931 51.7283 35.4637 51.7283 36.0155V39.2533H50.9899V38.5636C50.9899 38.5636 50.9574 38.6123 50.9249 38.6528C50.8925 38.6934 50.8276 38.7502 50.7302 38.8476C50.6247 38.9369 50.5192 39.018 50.3975 39.091C50.2839 39.1641 50.1297 39.2209 49.9349 39.2777C49.7402 39.3345 49.5454 39.3588 49.3426 39.3588C48.8394 39.3588 48.4094 39.2046 48.0604 38.9044C47.7115 38.6041 47.5411 38.2633 47.5411 37.8738C47.5411 37.4519 47.6709 37.1029 47.9225 36.8432C48.174 36.5836 48.5473 36.4132 49.0261 36.332L50.9899 36.0074H50.998ZM50.5354 38.1903C50.8438 37.8738 50.998 37.4681 50.998 36.965V36.6404L49.2452 36.965C48.6122 37.0867 48.2876 37.3869 48.2876 37.8657C48.2876 38.0929 48.385 38.2796 48.5717 38.4337C48.7583 38.5798 49.018 38.661 49.3507 38.661C49.8294 38.661 50.2271 38.5068 50.5354 38.1903Z" fill="white"/>
<path d="M57.8306 31.8203H58.5691V39.2453H57.8306V38.4501C57.8306 38.4501 57.7901 38.5069 57.7576 38.5475C57.7252 38.588 57.6521 38.6611 57.5385 38.7666C57.4249 38.8721 57.3032 38.9613 57.1733 39.0425C57.0435 39.1236 56.8731 39.1966 56.6702 39.2535C56.4674 39.3103 56.2564 39.3508 56.0373 39.3508C55.3881 39.3508 54.8201 39.0912 54.3332 38.5718C53.8463 38.0525 53.6028 37.4276 53.6028 36.7054C53.6028 35.9832 53.8463 35.3584 54.3332 34.8309C54.8201 34.3116 55.3881 34.0519 56.0373 34.0519C56.2564 34.0519 56.4674 34.0843 56.6621 34.1493C56.865 34.2142 57.0354 34.2872 57.1733 34.3684C57.3113 34.4495 57.433 34.5388 57.5304 34.628C57.6278 34.7173 57.7089 34.7903 57.7576 34.8552L57.8306 34.9526V31.8203ZM57.2707 35.3259C56.8974 34.9364 56.4836 34.7416 56.0292 34.7416C55.5747 34.7416 55.2015 34.9283 54.8525 35.3178C54.5036 35.6992 54.3332 36.1617 54.3332 36.7054C54.3332 37.2491 54.5036 37.7116 54.8525 38.093C55.2015 38.4744 55.591 38.6692 56.0292 38.6692C56.4674 38.6692 56.9056 38.4744 57.2707 38.0849C57.644 37.6954 57.8306 37.2329 57.8306 36.7135C57.8306 36.1942 57.644 35.7316 57.2707 35.3421V35.3259Z" fill="white"/>
<path d="M61.2064 36.965C61.2307 37.4275 61.4255 37.817 61.7744 38.1578C62.1234 38.4905 62.5372 38.661 63.0079 38.661C63.3244 38.661 63.6165 38.5879 63.8924 38.45C64.1683 38.312 64.3549 38.166 64.4685 38.028L64.6471 37.817L65.1258 38.2958C65.1258 38.2958 65.0772 38.3607 65.0366 38.4094C64.996 38.4581 64.9067 38.5473 64.7769 38.661C64.6471 38.7827 64.501 38.8882 64.3468 38.9774C64.1926 39.0667 63.9979 39.156 63.7544 39.229C63.511 39.302 63.2594 39.3426 63.0079 39.3426C62.3181 39.3426 61.7176 39.0829 61.2145 38.5717C60.7114 38.0523 60.468 37.4275 60.468 36.6972C60.468 35.9668 60.7114 35.3339 61.2145 34.8227C61.7176 34.3114 62.2938 34.0518 62.9592 34.0518C63.6246 34.0518 64.2332 34.2952 64.6958 34.774C65.1583 35.2527 65.3936 35.8614 65.3936 36.5998L65.3449 36.9812H61.2064V36.965ZM61.7907 35.2041C61.458 35.5205 61.2632 35.8938 61.2064 36.3239H64.6552C64.5984 35.8614 64.4117 35.4881 64.0953 35.1878C63.7788 34.8876 63.3974 34.7415 62.9511 34.7415C62.5048 34.7415 62.1153 34.8957 61.7907 35.2122V35.2041Z" fill="white"/>
<path d="M74.0277 36.2185C74.0277 35.7479 73.9141 35.3827 73.6788 35.123C73.4435 34.8634 73.1432 34.7416 72.7618 34.7416C72.3804 34.7416 72.0477 34.8958 71.7799 35.2042C71.5122 35.5125 71.3823 35.9183 71.3823 36.4376V39.2453H70.6439V36.2266C70.6439 35.7641 70.5303 35.3989 70.2949 35.1393C70.0596 34.8796 69.7512 34.7497 69.3698 34.7497C68.9885 34.7497 68.6557 34.9039 68.388 35.2123C68.1202 35.5206 67.9903 35.9264 67.9903 36.4457V39.2534H67.2519V34.1574H67.9903V34.7903C67.9903 34.7903 68.0228 34.7416 68.039 34.7092C68.0553 34.6767 68.1121 34.6199 68.1932 34.5306C68.2744 34.4495 68.3717 34.3684 68.4772 34.3034C68.5827 34.2385 68.7126 34.1736 68.883 34.1249C69.0453 34.0681 69.2238 34.0438 69.4185 34.0438C69.6458 34.0438 69.8567 34.0762 70.0596 34.1411C70.2544 34.2061 70.4167 34.2791 70.5303 34.3602C70.6439 34.4414 70.7494 34.5306 70.8305 34.6199C70.9117 34.7092 70.9766 34.7822 71.0172 34.8471L71.0658 34.9445C71.0658 34.9445 71.0983 34.8877 71.1226 34.8471C71.147 34.8065 71.2119 34.7335 71.3174 34.628C71.4229 34.5225 71.5284 34.4333 71.6501 34.3521C71.7718 34.271 71.9341 34.1979 72.1451 34.133C72.3561 34.0681 72.5752 34.0356 72.8186 34.0356C73.3948 34.0356 73.8736 34.2304 74.2306 34.6118C74.5958 34.9932 74.7743 35.5288 74.7743 36.2104V39.2291H74.0277V36.2104V36.2185Z" fill="white"/>
<path d="M78.3691 39.2452L76.2999 34.1572H77.0951L78.7424 38.2958L80.3816 34.1572H81.1769L78.8398 39.9836C78.6288 40.5192 78.4016 40.9006 78.1582 41.1278C77.9147 41.355 77.6145 41.4686 77.2493 41.4686C77.1357 41.4686 77.0221 41.4686 76.9166 41.4443C76.8111 41.42 76.73 41.4118 76.6813 41.3875L76.6082 41.3632V40.6734C76.7868 40.7383 76.9572 40.7789 77.1357 40.7789C77.582 40.7789 77.9066 40.5111 78.0932 39.9836L78.361 39.2452H78.3691Z" fill="white"/>
</g>
<g clip-path="url(#clip1_201_534)">
<path d="M42.738 27.6212C50.3654 27.6212 56.5486 21.438 56.5486 13.8106C56.5486 6.18323 50.3654 0 42.738 0C35.1106 0 28.9274 6.18323 28.9274 13.8106C28.9274 21.438 35.1106 27.6212 42.738 27.6212Z" fill="#D18C03"/>
<path d="M48.1759 6.84105C49.8975 8.15827 51.0953 10.0442 51.5556 12.1625C52.0159 14.2809 51.7089 16.4938 50.6891 18.4067C49.6694 20.3197 48.0033 21.8082 45.9881 22.6069C43.9728 23.4055 41.7394 23.4624 39.6861 22.7673C37.6328 22.0722 35.8931 20.6703 34.7774 18.8117C33.6617 16.9532 33.2424 14.7587 33.5944 12.6197C33.9464 10.4807 35.0467 8.53626 36.6991 7.13316C38.3515 5.73006 40.4486 4.95953 42.6163 4.95898V14.9566" stroke="#F6E9E1" stroke-width="2.49425" stroke-linecap="square" stroke-linejoin="round"/>
<path d="M18.9456 1.42578V21.2015L3.63431 1.42578H-6.10352e-05V27.2463H3.89693V7.48933L19.2082 27.2463H22.8238V1.42578H18.9456Z" fill="white"/>
<path d="M81.2411 1.36017L73.011 22.1629H71.5338L63.3553 1.36017H58.6986L68.3637 24.3857C68.677 25.2941 69.2256 26.1031 69.9534 26.7304C70.6512 27.1763 71.4715 27.3912 72.2982 27.3448C73.1143 27.3951 73.9249 27.1813 74.6101 26.7351C75.3479 26.0768 75.9076 25.2429 76.2374 24.3107L85.8978 1.33203L81.2411 1.36017Z" fill="white"/>
<path d="M112.126 1.43019V4.4221C111.362 3.70793 110.513 3.09052 109.599 2.58381C107.349 1.36886 104.825 0.75354 102.269 0.797105C99.6777 0.75358 97.1171 1.36149 94.822 2.56505C92.7292 3.67107 90.9927 5.34745 89.8136 7.39994C88.6111 9.54692 87.9979 11.9737 88.0362 14.4342C88.0006 16.8542 88.6143 19.2396 89.8136 21.3419C90.9718 23.3414 92.6552 24.9859 94.6813 26.097C96.8175 27.2663 99.2195 27.864 101.655 27.8322C103.801 27.8196 105.927 27.4176 107.929 26.6457C108.834 26.3116 109.694 25.8674 110.49 25.3233L112.126 24.1743L112.15 27.2741H116.398V1.43019H112.126ZM110.813 19.5692C109.971 21.0324 108.73 22.2262 107.235 23.0113C105.704 23.8132 103.998 24.224 102.269 24.2072C100.496 24.2391 98.7436 23.8264 97.1714 23.0067C95.684 22.2129 94.4577 21.0062 93.6402 19.5317C92.7784 17.9511 92.3436 16.1732 92.3787 14.3733C92.3485 12.5859 92.7695 10.8198 93.6027 9.23823C94.4067 7.74448 95.6203 6.51128 97.1011 5.68358C98.6654 4.85653 100.408 4.42421 102.177 4.42421C103.947 4.42421 105.69 4.85653 107.254 5.68358C108.754 6.51733 109.991 7.75539 110.823 9.25699C111.691 10.8359 112.134 12.6136 112.108 14.4155C112.146 16.2183 111.699 17.9984 110.813 19.5692Z" fill="white"/>
</g>
<defs>
<clipPath id="clip0_201_534">
<rect width="45.6375" height="9.64848" fill="white" transform="translate(35.5393 31.8203)"/>
</clipPath>
<clipPath id="clip1_201_534">
<rect width="116.398" height="27.8323" fill="white"/>
</clipPath>
</defs>
</svg>
