<svg width="386" height="111" viewBox="0 0 386 111" fill="none" xmlns="http://www.w3.org/2000/svg">
<g filter="url(#filter0_d_20_1017)">
<path d="M5.36 17.432C5.36 13.9227 6.088 10.88 7.544 8.304C9.03733 5.69066 11.0907 3.69333 13.704 2.312C16.3173 0.893332 19.3227 0.183999 22.72 0.183999C26.1173 0.183999 29.1227 0.893332 31.736 2.312C34.3867 3.69333 36.44 5.69066 37.896 8.304C39.3893 10.88 40.136 13.9227 40.136 17.432V40H32.912V17.432C32.912 14.0347 31.9787 11.384 30.112 9.48C28.2453 7.576 25.7813 6.624 22.72 6.624C19.696 6.624 17.2507 7.59467 15.384 9.536C13.5547 11.44 12.64 14.072 12.64 17.432V40H5.36V17.432ZM67.1385 40.616C63.1812 40.616 59.6158 39.7573 56.4425 38.04C53.3065 36.2853 50.8425 33.8773 49.0505 30.816C47.2585 27.7547 46.3625 24.2827 46.3625 20.4C46.3625 16.5547 47.2585 13.1013 49.0505 10.04C50.8425 6.94133 53.3252 4.53333 56.4985 2.816C59.6718 1.06133 63.2372 0.183999 67.1945 0.183999C71.1518 0.183999 74.6985 1.06133 77.8345 2.816C81.0078 4.53333 83.4905 6.92267 85.2825 9.984C87.0745 13.0453 87.9705 16.5173 87.9705 20.4C87.9705 24.2453 87.0745 27.7173 85.2825 30.816C83.4905 33.8773 81.0078 36.2853 77.8345 38.04C74.6985 39.7573 71.1332 40.616 67.1385 40.616ZM67.1945 34.176C69.7705 34.176 72.0665 33.5973 74.0825 32.44C76.0985 31.2827 77.6852 29.6587 78.8425 27.568C79.9998 25.4773 80.5785 23.088 80.5785 20.4C80.5785 17.712 79.9998 15.3227 78.8425 13.232C77.6852 11.1413 76.0985 9.51733 74.0825 8.36C72.0665 7.20267 69.7705 6.624 67.1945 6.624C64.6185 6.624 62.3038 7.20267 60.2505 8.36C58.2345 9.51733 56.6478 11.1413 55.4905 13.232C54.3705 15.3227 53.8105 17.712 53.8105 20.4C53.8105 23.088 54.3705 25.4773 55.4905 27.568C56.6478 29.6587 58.2345 31.2827 60.2505 32.44C62.3038 33.5973 64.6185 34.176 67.1945 34.176ZM112.609 40H105.441L88.4168 0.799997H96.0888L108.969 31.488H109.193L122.073 0.799997H129.689L112.609 40ZM146.915 0.183999C150.313 0.183999 153.318 0.893332 155.931 2.312C158.582 3.69333 160.635 5.69066 162.091 8.304C163.547 10.88 164.275 13.9227 164.275 17.432V40H157.107V28.8H136.891V40H129.555V17.432C129.555 13.9227 130.283 10.88 131.739 8.304C133.233 5.69066 135.286 3.69333 137.899 2.312C140.513 0.893332 143.518 0.183999 146.915 0.183999ZM136.891 22.416H157.107V17.432C157.107 14.0347 156.174 11.384 154.307 9.48C152.441 7.576 149.977 6.624 146.915 6.624C143.929 6.624 141.502 7.576 139.635 9.48C137.806 11.384 136.891 14.0347 136.891 17.432V22.416ZM25.632 102.616C21.7493 102.616 18.2213 101.739 15.048 99.984C11.8747 98.2293 9.37333 95.8027 7.544 92.704C5.71467 89.6053 4.8 86.1707 4.8 82.4C4.8 78.592 5.696 75.1573 7.488 72.096C9.28 68.9973 11.744 66.5707 14.88 64.816C18.016 63.0613 21.5253 62.184 25.408 62.184C31.68 62.184 36.8693 64.2933 40.976 68.512L36.328 72.768C33.3787 69.7067 29.832 68.176 25.688 68.176C23.1867 68.176 20.8907 68.792 18.8 70.024C16.7467 71.256 15.1227 72.9547 13.928 75.12C12.7333 77.2853 12.136 79.6933 12.136 82.344C12.136 85.032 12.7333 87.4587 13.928 89.624C15.1227 91.752 16.7467 93.432 18.8 94.664C20.8533 95.8587 23.1307 96.456 25.632 96.456C27.7227 96.456 29.6827 96.064 31.512 95.28C33.3787 94.4587 35.0213 93.3013 36.44 91.808L41.088 96.064C39.184 98.192 36.9067 99.816 34.256 100.936C31.6053 102.056 28.7307 102.616 25.632 102.616ZM64.6776 102.616C60.7202 102.616 57.1549 101.757 53.9816 100.04C50.8456 98.2853 48.3816 95.8773 46.5896 92.816C44.7976 89.7547 43.9016 86.2827 43.9016 82.4C43.9016 78.5547 44.7976 75.1013 46.5896 72.04C48.3816 68.9413 50.8642 66.5333 54.0376 64.816C57.2109 63.0613 60.7762 62.184 64.7336 62.184C68.6909 62.184 72.2376 63.0613 75.3736 64.816C78.5469 66.5333 81.0296 68.9227 82.8216 71.984C84.6136 75.0453 85.5096 78.5173 85.5096 82.4C85.5096 86.2453 84.6136 89.7173 82.8216 92.816C81.0296 95.8773 78.5469 98.2853 75.3736 100.04C72.2376 101.757 68.6722 102.616 64.6776 102.616ZM64.7336 96.176C67.3096 96.176 69.6056 95.5973 71.6216 94.44C73.6376 93.2827 75.2242 91.6587 76.3816 89.568C77.5389 87.4773 78.1176 85.088 78.1176 82.4C78.1176 79.712 77.5389 77.3227 76.3816 75.232C75.2242 73.1413 73.6376 71.5173 71.6216 70.36C69.6056 69.2027 67.3096 68.624 64.7336 68.624C62.1576 68.624 59.8429 69.2027 57.7896 70.36C55.7736 71.5173 54.1869 73.1413 53.0296 75.232C51.9096 77.3227 51.3496 79.712 51.3496 82.4C51.3496 85.088 51.9096 87.4773 53.0296 89.568C54.1869 91.6587 55.7736 93.2827 57.7896 94.44C59.8429 95.5973 62.1576 96.176 64.7336 96.176ZM130.296 62.24C133.17 62.24 135.728 62.9307 137.968 64.312C140.208 65.656 141.944 67.5973 143.176 70.136C144.445 72.6373 145.08 75.5493 145.08 78.872V102H137.856V78.872C137.856 75.848 137.128 73.5147 135.672 71.872C134.216 70.2293 132.293 69.408 129.904 69.408C127.552 69.408 125.648 70.2293 124.192 71.872C122.736 73.5147 122.008 75.848 122.008 78.872V102H114.728V78.984C114.728 75.96 114 73.608 112.544 71.928C111.125 70.248 109.24 69.408 106.888 69.408C104.498 69.408 102.576 70.2293 101.12 71.872C99.7009 73.5147 98.9916 75.848 98.9916 78.872V102H91.7116V78.872C91.7116 75.512 92.3276 72.5813 93.5596 70.08C94.7916 67.5787 96.5276 65.656 98.7676 64.312C101.008 62.9307 103.565 62.24 106.44 62.24C108.866 62.24 111.069 62.744 113.048 63.752C115.026 64.76 116.688 66.216 118.032 68.12C119.45 66.216 121.186 64.76 123.24 63.752C125.33 62.744 127.682 62.24 130.296 62.24ZM190.397 62.24C193.272 62.24 195.829 62.9307 198.069 64.312C200.309 65.656 202.045 67.5973 203.277 70.136C204.546 72.6373 205.181 75.5493 205.181 78.872V102H197.957V78.872C197.957 75.848 197.229 73.5147 195.773 71.872C194.317 70.2293 192.394 69.408 190.005 69.408C187.653 69.408 185.749 70.2293 184.293 71.872C182.837 73.5147 182.109 75.848 182.109 78.872V102H174.829V78.984C174.829 75.96 174.101 73.608 172.645 71.928C171.226 70.248 169.341 69.408 166.989 69.408C164.6 69.408 162.677 70.2293 161.221 71.872C159.802 73.5147 159.093 75.848 159.093 78.872V102H151.813V78.872C151.813 75.512 152.429 72.5813 153.661 70.08C154.893 67.5787 156.629 65.656 158.869 64.312C161.109 62.9307 163.666 62.24 166.541 62.24C168.968 62.24 171.17 62.744 173.149 63.752C175.128 64.76 176.789 66.216 178.133 68.12C179.552 66.216 181.288 64.76 183.341 63.752C185.432 62.744 187.784 62.24 190.397 62.24ZM229.275 102.616C225.765 102.616 222.704 101.925 220.091 100.544C217.477 99.1627 215.461 97.2027 214.043 94.664C212.624 92.088 211.915 89.064 211.915 85.592V62.8H219.251V84.248C219.251 87.72 220.128 90.4267 221.883 92.368C223.675 94.3093 226.139 95.28 229.275 95.28C232.448 95.28 234.931 94.3093 236.723 92.368C238.552 90.4267 239.467 87.72 239.467 84.248V62.8H246.635V85.592C246.635 89.064 245.925 92.088 244.507 94.664C243.125 97.2027 241.128 99.1627 238.515 100.544C235.901 101.925 232.821 102.616 229.275 102.616ZM253.423 79.432C253.423 75.9227 254.151 72.88 255.607 70.304C257.1 67.6907 259.153 65.6933 261.767 64.312C264.38 62.8933 267.385 62.184 270.783 62.184C274.18 62.184 277.185 62.8933 279.799 64.312C282.449 65.6933 284.503 67.6907 285.959 70.304C287.452 72.88 288.199 75.9227 288.199 79.432V102H280.975V79.432C280.975 76.0347 280.041 73.384 278.175 71.48C276.308 69.576 273.844 68.624 270.783 68.624C267.759 68.624 265.313 69.5947 263.447 71.536C261.617 73.44 260.703 76.072 260.703 79.432V102H253.423V79.432ZM303.441 102H296.217V62.8H303.441V102ZM309.207 62.8H342.191V69.184H329.311V102H322.031V69.184H309.207V62.8ZM373.812 62.8H381.036V72.264C381.036 76.9307 379.878 80.7387 377.564 83.688C375.249 86.6 371.982 88.3733 367.764 89.008V102H360.54V89.008C356.321 88.336 353.036 86.544 350.684 83.632C348.369 80.6827 347.212 76.8933 347.212 72.264V62.8H354.492V72.264C354.492 75.6987 355.313 78.3493 356.956 80.216C358.636 82.0827 361.044 83.016 364.18 83.016C367.278 83.016 369.649 82.0827 371.292 80.216C372.972 78.3493 373.812 75.6987 373.812 72.264V62.8Z" fill="#213B3B"/>
</g>
<defs>
<filter id="filter0_d_20_1017" x="0.799805" y="0.184082" width="384.235" height="110.432" filterUnits="userSpaceOnUse" color-interpolation-filters="sRGB">
<feFlood flood-opacity="0" result="BackgroundImageFix"/>
<feColorMatrix in="SourceAlpha" type="matrix" values="0 0 0 0 0 0 0 0 0 0 0 0 0 0 0 0 0 0 127 0" result="hardAlpha"/>
<feOffset dy="4"/>
<feGaussianBlur stdDeviation="2"/>
<feComposite in2="hardAlpha" operator="out"/>
<feColorMatrix type="matrix" values="0 0 0 0 0 0 0 0 0 0 0 0 0 0 0 0 0 0 0.25 0"/>
<feBlend mode="normal" in2="BackgroundImageFix" result="effect1_dropShadow_20_1017"/>
<feBlend mode="normal" in="SourceGraphic" in2="effect1_dropShadow_20_1017" result="shape"/>
</filter>
</defs>
</svg>
